<svg width="144" height="32" viewBox="0 0 144 32" fill="none" xmlns="http://www.w3.org/2000/svg">
<g clip-path="url(#clip0_3949_7700)">
<path d="M61.8485 11.4534C61.8485 14.8258 61.8485 17.5937 61.8485 19.7572C61.8485 23.0023 60.016 25.1976 57.2672 25.1976" stroke="#2E2E38" stroke-width="4.58139" stroke-linecap="round" stroke-linejoin="round"/>
<path d="M52.6858 11.4534C52.6858 14.8258 52.6858 17.5937 52.6858 19.7572C52.6858 23.0023 50.8532 25.1976 48.1044 25.1976" stroke="#2E2E38" stroke-width="4.58139" stroke-linecap="round" stroke-linejoin="round"/>
<path fill-rule="evenodd" clip-rule="evenodd" d="M61.8487 6.87201C63.1116 6.87201 64.1392 5.84434 64.1392 4.58119C64.1392 3.31803 63.1116 2.29062 61.8487 2.29062C60.5853 2.29062 59.5579 3.31803 59.5579 4.58119C59.5579 5.84434 60.5853 6.87201 61.8487 6.87201Z" fill="#2E2E38"/>
<path d="M41.2323 25.1976H34.3602" stroke="#2E2E38" stroke-width="4.58139" stroke-linecap="round" stroke-linejoin="round"/>
<path d="M43.523 11.4534V13.9732C43.523 16.5034 41.4718 18.3255 38.9416 18.3255H25.1974C22.6672 18.3255 20.6161 16.5034 20.6161 13.9732V11.4534" stroke="#2E2E38" stroke-width="4.58139" stroke-linecap="round" stroke-linejoin="round"/>
<path fill-rule="evenodd" clip-rule="evenodd" d="M13.7441 6.87201C15.007 6.87201 16.0347 5.84434 16.0347 4.58119C16.0347 3.31803 15.007 2.29062 13.7441 2.29062C12.4807 2.29062 11.4533 3.31803 11.4533 4.58119C11.4533 5.84434 12.4807 6.87201 13.7441 6.87201Z" fill="#2E2E38"/>
<path d="M6.87189 11.4534V18.3255C6.87189 22.1208 9.94862 25.1976 13.744 25.1976V25.1976C17.5393 25.1976 20.6161 22.1208 20.6161 18.3255V11.4534" stroke="#2E2E38" stroke-width="4.58139" stroke-linecap="round" stroke-linejoin="round"/>
<path fill-rule="evenodd" clip-rule="evenodd" d="M91.6276 9.16272C92.8927 9.16272 93.9183 10.1883 93.9183 11.4534V13.7441C93.9183 15.0092 94.9438 16.0348 96.209 16.0348H100.79C102.055 16.0348 103.081 15.0092 103.081 13.7441V11.4534C103.081 10.1883 104.107 9.16272 105.372 9.16272C106.637 9.16272 107.662 10.1883 107.662 11.4534V13.7441C107.662 17.5395 104.586 20.6162 100.79 20.6162H96.209C92.4136 20.6162 89.3369 17.5395 89.3369 13.7441V11.4534C89.3369 10.1883 90.3625 9.16272 91.6276 9.16272Z" fill="#2E2E38"/>
<path fill-rule="evenodd" clip-rule="evenodd" d="M91.6279 9.16272C92.893 9.16272 93.9186 10.1883 93.9186 11.4534V13.7441C93.9186 17.5395 90.8419 20.6162 87.0465 20.6162H80.1745C78.9093 20.6162 77.8838 19.5906 77.8838 18.3255C77.8838 17.0604 78.9093 16.0348 80.1745 16.0348H87.0465C88.3117 16.0348 89.3372 15.0092 89.3372 13.7441V11.4534C89.3372 10.1883 90.3628 9.16272 91.6279 9.16272Z" fill="#2E2E38"/>
<path fill-rule="evenodd" clip-rule="evenodd" d="M105.372 6.87216C106.635 6.87216 107.663 5.84449 107.663 4.58134C107.663 3.31819 106.635 2.29077 105.372 2.29077C104.109 2.29077 103.081 3.31819 103.081 4.58134C103.081 5.84449 104.109 6.87216 105.372 6.87216Z" fill="#2E2E38"/>
<path fill-rule="evenodd" clip-rule="evenodd" d="M75.5933 11.4535C74.3572 11.4535 73.3026 12.5282 73.3026 13.7442C73.3026 14.9601 74.3572 16.0349 75.5933 16.0349H77.884V13.7442C77.884 12.4509 76.8667 11.4535 75.5933 11.4535ZM82.4654 13.7442C82.4654 9.88338 79.3595 6.8721 75.5933 6.8721C71.79 6.8721 68.7213 10.0351 68.7213 13.7442C68.7213 17.4532 71.79 20.6163 75.5933 20.6163H77.8033C77.6524 21.4011 77.311 21.8727 76.962 22.1733C76.4374 22.625 75.6355 22.907 74.6771 22.907H71.0119C69.7468 22.907 68.7213 23.9325 68.7213 25.1977C68.7213 26.4628 69.7468 27.4883 71.0119 27.4883H74.6771C76.4674 27.4883 78.4143 26.9686 79.9514 25.645C81.5452 24.2726 82.4654 22.2341 82.4654 19.7V13.7442Z" fill="#2E2E38"/>
<path d="M88.5599 6.12954C88.357 5.72 88.5273 5.22361 88.9389 5.02487L89.6477 4.68261C89.2114 4.46952 88.8841 4.18718 88.666 3.83558C88.4478 3.48399 88.3387 3.0951 88.3387 2.66893C88.3387 2.29602 88.4042 1.94975 88.5351 1.63012C88.6769 1.29984 88.8678 1.01749 89.1078 0.783098C89.3477 0.538047 89.6259 0.346267 89.9422 0.207761C90.2695 0.0692533 90.6131 0 90.973 0C91.305 0 91.4755 0.0425894 91.7509 0.147699C92.1573 0.302793 92.3678 0.758983 92.2286 1.17109V1.17109C92.0801 1.61059 91.5915 1.80088 91.1282 1.77636C91.0983 1.77477 91.0684 1.77396 91.0385 1.77396C90.6894 1.77396 90.4113 1.86452 90.204 2.04564C90.0077 2.21611 89.9095 2.45051 89.9095 2.74883C89.9095 3.01519 90.0022 3.23894 90.1877 3.42006C90.3731 3.59053 90.6349 3.67577 90.973 3.67577C91.1039 3.67577 91.2403 3.66511 91.3821 3.6438C91.5239 3.61184 91.6766 3.56389 91.8402 3.49997C92.0148 3.43604 92.2057 3.35081 92.4129 3.24426C92.4197 3.24094 92.4266 3.23759 92.4334 3.23423C92.8474 3.03176 93.3487 3.19738 93.5533 3.61028V3.61028C93.7553 4.01816 93.5908 4.51267 93.1846 4.71818L89.6672 6.49796C89.2598 6.70407 88.7626 6.53861 88.5599 6.12954V6.12954Z" fill="#2E2E38"/>
<path d="M134.455 26.309C134.185 27.0191 133.503 27.4883 132.743 27.4883C128.659 27.4883 124.575 27.4883 120.49 27.4883C120.299 27.4883 120.155 27.456 120.155 27.456L119.949 27.4051C119.949 27.4051 125.733 12.8547 128.639 5.58928C128.882 4.9805 129.472 4.58132 130.128 4.58132L140.418 4.58131C141.552 4.58131 142.328 5.72705 141.907 6.78032L134.455 26.309Z" fill="url(#paint0_linear_3949_7700)"/>
<path d="M133.457 27.3436C133.27 27.4228 133.11 27.4748 132.861 27.4883L120.495 27.4883C119.711 27.4883 119.014 26.9895 118.76 26.2474L114.585 14.9575C114.382 14.3628 114.822 13.7441 115.448 13.7441L126.545 13.7441C127.325 13.7441 128.018 14.2416 128.27 14.9823L132.452 26.2897C132.63 26.774 133 27.1499 133.457 27.3436Z" fill="#3B68FF"/>
<path d="M125.386 13.7443L126.546 13.7443C127.325 13.7443 128.018 14.2418 128.271 14.9825L132.452 26.2899C132.63 26.7742 133 27.1501 133.457 27.3437C133.447 27.3482 133.436 27.3526 133.426 27.357C133.213 27.4423 132.982 27.4884 132.744 27.4884L120.495 27.4884C120.403 27.4884 120.312 27.4816 120.223 27.4682C120.18 27.4618 120.155 27.4562 120.155 27.4562L119.95 27.4052C119.95 27.4052 122.718 20.442 125.386 13.7443Z" fill="url(#paint1_linear_3949_7700)"/>
</g>
<defs>
<linearGradient id="paint0_linear_3949_7700" x1="126.561" y1="27.4883" x2="135.723" y2="4.58131" gradientUnits="userSpaceOnUse">
<stop stop-color="#F0BA09"/>
<stop offset="1" stop-color="#FFD60A"/>
</linearGradient>
<linearGradient id="paint1_linear_3949_7700" x1="121.601" y1="27.6" x2="131.549" y2="20.8531" gradientUnits="userSpaceOnUse">
<stop stop-color="#053EFF"/>
<stop offset="1" stop-color="#4A71F5"/>
</linearGradient>
<clipPath id="clip0_3949_7700">
<rect width="144" height="32" fill="white"/>
</clipPath>
</defs>
</svg>
