<svg width="80" height="80" viewBox="0 0 80 80" fill="none" xmlns="http://www.w3.org/2000/svg">
<path d="M70.7781 16.3016L79.9943 12.8459V7.041L70.3752 11.8534L79.9943 4.12354V0H76.1539L67.5402 9.33731L73.2646 0H67.8496L62.9757 8.89159C66.4405 10.2974 69.2178 12.9722 70.7781 16.3016Z" fill="#F29200"/>
<path d="M79.9943 32.0687L70.9945 28.2889C71.6028 26.8564 71.9922 25.3028 72.1181 23.6658C72.2978 21.3371 71.9236 19.0932 71.1084 17.0629L79.9943 14.9139V18.7933L74.6928 20.2301L79.9943 21.245V25.135L75.8069 25.2985L79.9943 26.8488V32.0687Z" fill="#F29200"/>
<path d="M0 43.0683L43.1689 26.159C44.0423 29.598 46.1355 32.5855 48.9929 34.592L22.2519 79.9943H10.9829L34.9676 45.2145L0 80V62.5586L29.9526 39.1155L0 54.1819V43.0683Z" fill="#F29200"/>
<path d="M30.9356 79.9943L49.8295 35.1383C51.7368 36.2924 53.9359 37.0303 56.3104 37.2129C57.8511 37.3316 59.3547 37.2081 60.7843 36.8749L72.16 79.9943H63.3371L57.2719 50.9183L56.8739 79.9943H47.8631L49.9549 51.5061L41.8527 79.9943H30.9356Z" fill="#F29200"/>
<path d="M61.8989 36.5679L79.918 79.8165L79.9943 79.9943V59.9143L70.3214 43.2361L79.9943 52.2097V45.3227L73.942 37.222L79.9943 40.2314V34.93L70.5335 29.2719C68.7444 32.7438 65.6253 35.3819 61.8989 36.5679Z" fill="#F29200"/>
<path d="M65.59 0L62.2812 8.63035C61.1089 8.22277 59.8666 7.95772 58.5714 7.85808C56.4443 7.69409 54.3878 7.99156 52.5005 8.66563L50.4082 0H54.702L55.6959 3.69116L55.8346 0H59.7794L59.4929 4.74946L60.964 0H65.59Z" fill="#F29200"/>
<path d="M51.7545 8.95404L48.2478 0H43.157L45.0224 4.18503L41.6544 0H34.9295L40.4884 6.08139L31.9143 0H18.6646L44.8017 14.9849C46.4153 12.2891 48.8594 10.1696 51.7545 8.95404Z" fill="#F29200"/>
<path d="M9.57186 0L44.3693 15.7572C43.484 17.4624 42.9201 19.3692 42.7633 21.4052C42.6617 22.7228 42.738 24.0128 42.9701 25.2527L0 36.8101V26.6066L28.0763 22.8258L0 21.0329V12.609L30.038 16.5108L0 7.85808V0H9.57186Z" fill="#F29200"/>
</svg>
