<svg width="256" height="256" viewBox="0 0 256 256" fill="none" xmlns="http://www.w3.org/2000/svg">
<g clip-path="url(#clip0_3947_6969)">
<circle cx="128" cy="128" r="128" fill="#EDEEEF"/>
<mask id="mask0_3947_6969" style="mask-type:alpha" maskUnits="userSpaceOnUse" x="0" y="0" width="257" height="256">
<circle cx="128" cy="128" r="128" fill="#EDEEEF"/>
</mask>
<g mask="url(#mask0_3947_6969)">
<path d="M-5.99976 268.889L128 209.333L262 268.889" stroke="#E4E4E4" stroke-width="2"/>
<path d="M-5.99976 224.222L128 164.667L262 224.222" stroke="#E4E4E4" stroke-width="2"/>
<path d="M-5.99976 179.556L128 120L262 179.556" stroke="#E4E4E4" stroke-width="2"/>
<path d="M-5.99976 134.889L128 75.3335L262 134.889" stroke="#E4E4E4" stroke-width="2"/>
<path d="M-5.99976 90.2221L128 30.6665L262 90.2221" stroke="#E4E4E4" stroke-width="2"/>
<path d="M-5.99976 45.5556L128 -14L262 45.5556" stroke="#E4E4E4" stroke-width="2"/>
<g opacity="0.15" filter="url(#filter0_f_3947_6969)">
<rect x="-104" y="60" width="144" height="144" rx="4" fill="#0A33FF"/>
</g>
<rect x="-108" y="56" width="144" height="144" rx="4" fill="#3B68FF"/>
<rect x="-95.9998" y="168" width="120" height="20" rx="4.30769" fill="#0A33FF"/>
<rect x="-87.9998" y="144" width="102" height="8" rx="4" fill="white" fill-opacity="0.4"/>
<g opacity="0.15" filter="url(#filter1_f_3947_6969)">
<rect x="224" y="60" width="144" height="144" rx="4" fill="#0A33FF"/>
</g>
<rect x="220" y="56" width="144" height="144" rx="4" fill="#3B68FF"/>
<rect x="232" y="168" width="120" height="20" rx="4.30769" fill="#0A33FF"/>
<rect x="240" y="144" width="102" height="8" rx="4" fill="white" fill-opacity="0.4"/>
</g>
<rect x="72.8125" y="55" width="109.5" height="132.312" rx="4" fill="#3B68FF"/>
<path d="M204.625 141.125V197C204.625 198.933 203.058 200.5 201.125 200.5H54C52.067 200.5 50.5 198.933 50.5 197V141.125C50.5 139.192 52.067 137.625 54 137.625H88.9213C90.1597 137.625 91.3059 138.279 91.9354 139.346L101.733 155.944C102.542 157.315 104.016 158.156 105.608 158.156H128.774H149.517C151.109 158.156 152.583 157.315 153.392 155.944L163.19 139.346C163.819 138.279 164.965 137.625 166.204 137.625H201.125C203.058 137.625 204.625 139.192 204.625 141.125Z" fill="white" stroke="#F4F4F6"/>
<rect x="91.0625" y="77.8125" width="73" height="11.4062" rx="1.25" fill="white"/>
<rect opacity="0.5" x="104.75" y="102.906" width="45.625" height="11.4062" rx="1.25" fill="white"/>
<rect opacity="0.5" x="104.75" y="123.438" width="45.625" height="11.4062" rx="1.25" fill="white"/>
</g>
<defs>
<filter id="filter0_f_3947_6969" x="-108" y="56" width="152" height="152" filterUnits="userSpaceOnUse" color-interpolation-filters="sRGB">
<feFlood flood-opacity="0" result="BackgroundImageFix"/>
<feBlend mode="normal" in="SourceGraphic" in2="BackgroundImageFix" result="shape"/>
<feGaussianBlur stdDeviation="2" result="effect1_foregroundBlur_3947_6969"/>
</filter>
<filter id="filter1_f_3947_6969" x="220" y="56" width="152" height="152" filterUnits="userSpaceOnUse" color-interpolation-filters="sRGB">
<feFlood flood-opacity="0" result="BackgroundImageFix"/>
<feBlend mode="normal" in="SourceGraphic" in2="BackgroundImageFix" result="shape"/>
<feGaussianBlur stdDeviation="2" result="effect1_foregroundBlur_3947_6969"/>
</filter>
<clipPath id="clip0_3947_6969">
<rect width="256" height="256" fill="white"/>
</clipPath>
</defs>
</svg>
