<svg width="80" height="80" viewBox="0 0 80 80" fill="none" xmlns="http://www.w3.org/2000/svg">
<path d="M35.8675 6.54391C36.6486 4.60483 38.5401 3.33334 40.6434 3.33334H73.6529C77.2919 3.33334 79.7803 6.98273 78.4288 10.3376L53.1508 73.0858C52.3696 75.0249 50.4782 76.2964 48.3749 76.2964H15.3653C11.7263 76.2964 9.23796 72.647 10.5895 69.2921L35.8675 6.54391Z" fill="url(#paint0_linear_3948_7624)"/>
<path d="M21.8889 47.1112C33.9778 47.1112 43.7778 37.3112 43.7778 25.2223C43.7778 13.1333 33.9778 3.33334 21.8889 3.33334C9.8 3.33334 0 13.1333 0 25.2223C0 37.3112 9.8 47.1112 21.8889 47.1112Z" fill="#0A33FF"/>
<path d="M43.7776 25.2223C43.7776 37.3112 33.9776 47.1112 21.8887 47.1112C21.1062 47.1112 20.3333 47.0702 19.572 46.9901L35.308 7.92807C40.4616 11.9327 43.7776 18.1903 43.7776 25.2223Z" fill="url(#paint1_linear_3948_7624)"/>
<defs>
<linearGradient id="paint0_linear_3948_7624" x1="58.1065" y1="3.33334" x2="32.3116" y2="76.3851" gradientUnits="userSpaceOnUse">
<stop stop-color="#FFD60A"/>
<stop offset="1" stop-color="#F0BA09"/>
</linearGradient>
<linearGradient id="paint1_linear_3948_7624" x1="35.1485" y1="7.95503" x2="19.5152" y2="46.9202" gradientUnits="userSpaceOnUse">
<stop stop-color="#051A80"/>
<stop offset="1" stop-color="#0A33FF"/>
</linearGradient>
</defs>
</svg>
