<svg width="80" height="80" viewBox="0 0 80 80" fill="none" xmlns="http://www.w3.org/2000/svg">
<path fill-rule="evenodd" clip-rule="evenodd" d="M40.0634 4.89562C44.1354 4.89562 47.4401 8.23493 47.4401 12.3542C47.4401 16.4739 44.1349 19.8133 40.0634 19.8133C35.9853 19.8133 32.6801 16.4739 32.6801 12.3542C32.6801 8.23493 35.9853 4.89562 40.0634 4.89562ZM57.2404 0C61.3195 0 64.6224 3.33977 64.6224 7.45904C64.6229 11.5788 61.3195 14.9185 57.2399 14.9185C53.1676 14.9185 49.8624 11.5788 49.8624 7.45904C49.8624 3.33977 53.168 0 57.2404 0ZM24.3217 12.5272C28.3981 12.5272 31.7024 15.8679 31.7024 19.9889C31.7024 24.1073 28.3981 27.4475 24.3217 27.4475C20.2458 27.4475 16.941 24.1073 16.941 19.9889C16.941 15.8679 20.2458 12.5272 24.3217 12.5272ZM40.0174 47.4017C40.5063 47.3782 45.4272 47.1845 48.4522 48.7091C49.5599 49.2669 49.6738 49.9859 49.672 50.7469C49.6702 54.2854 40.1122 59.3377 39.1725 59.8169C27.0688 65.9928 10 67.0429 10 67.0429L10.1604 80C17.4634 78.9879 30.639 77.4984 46.5389 68.8841C54.403 64.6231 62.9142 57.6089 61.3266 47.5692C59.7927 37.8837 49.6488 35.1545 40.0961 35.5727L39.9835 47.3597C39.4996 47.3836 34.5755 47.5778 31.55 46.0536C30.4419 45.4958 30.3302 44.7773 30.3302 44.0154C30.3311 40.4765 39.8883 35.4241 40.8289 34.9463C52.9339 28.769 70 27.719 70 27.719L69.84 14.7614C62.5349 15.7757 49.361 17.2638 33.4625 25.8777C25.597 30.1383 17.0885 37.153 18.6774 47.1926C20.2109 56.8804 30.3548 59.6073 39.9048 59.1882L40.0174 47.4017Z" fill="#D8262C"/>
</svg>
