<svg width="80" height="80" viewBox="0 0 80 80" fill="none" xmlns="http://www.w3.org/2000/svg">
<path d="M11.1317 4.31031e-07H68.8684C74.9684 4.31031e-07 80 5.03209 80 11.1312V68.8688C80 74.9679 74.9684 80 68.8684 80H11.1317C5.03158 80 1.80261e-05 74.9679 1.80261e-05 68.8688V11.1327C-0.0052977 8.18145 1.16525 5.34927 3.2535 3.26082C5.34175 1.17236 8.17617 -0.000820967 11.1317 4.31031e-07" fill="url(#paint0_radial_3948_7620)"/>
<path d="M76.6666 36.6667V68.1964C76.6716 70.4422 75.7906 72.5976 74.2182 74.1868C72.6458 75.776 70.5114 76.6683 68.286 76.6667H11.7124C9.4876 76.6679 7.35376 75.7757 5.78176 74.1868C4.20976 72.598 3.32881 70.4432 3.33333 68.1979V55.0449C6.42352 21.3509 38.2757 55.466 53.073 55.466C64.8405 55.4036 71.8521 46.2768 76.6666 36.6667" fill="url(#paint1_linear_3948_7620)"/>
<path d="M11.7657 3.33334H68.2929C72.9244 3.33334 76.6666 7.08958 76.6666 11.7388V24.3773C74.053 59.3086 41.8117 24.4361 26.9076 24.4361C15.21 24.4361 8.20254 33.7949 3.33331 43.3333V11.7388C3.39352 7.1484 7.19288 3.33489 11.7657 3.33489" fill="url(#paint2_linear_3948_7620)"/>
<defs>
<radialGradient id="paint0_radial_3948_7620" cx="0" cy="0" r="1" gradientUnits="userSpaceOnUse" gradientTransform="translate(39.9856 39.9823) scale(40.0056)">
<stop stop-color="#F4B31B"/>
<stop offset="1" stop-color="#CC932B"/>
</radialGradient>
<linearGradient id="paint1_linear_3948_7620" x1="76.6802" y1="76.6423" x2="76.6802" y2="36.6443" gradientUnits="userSpaceOnUse">
<stop stop-color="#6E2616"/>
<stop offset="1" stop-color="#9B4722"/>
</linearGradient>
<linearGradient id="paint2_linear_3948_7620" x1="3.38171" y1="3.35054" x2="3.38171" y2="43.3465" gradientUnits="userSpaceOnUse">
<stop stop-color="#6E2616"/>
<stop offset="1" stop-color="#9B4722"/>
</linearGradient>
</defs>
</svg>
