<svg width="131" height="40" viewBox="0 0 131 40" fill="none" xmlns="http://www.w3.org/2000/svg">
<rect x="0.5" width="130" height="40" rx="6" fill="black"/>
<path fill-rule="evenodd" clip-rule="evenodd" d="M26.2689 20.5804C26.2907 18.8839 27.1801 17.3169 28.6254 16.4283C27.7095 15.1202 26.2304 14.3206 24.6343 14.2706C22.955 14.0944 21.3271 15.2754 20.4714 15.2754C19.5991 15.2754 18.2816 14.2881 16.8629 14.3173C14.9962 14.3776 13.2981 15.4132 12.39 17.0452C10.456 20.3936 11.8985 25.3146 13.7512 28.0213C14.6781 29.3466 15.7613 30.8271 17.1788 30.7746C18.5658 30.717 19.0839 29.8901 20.7582 29.8901C22.4169 29.8901 22.903 30.7746 24.3492 30.7412C25.8376 30.717 26.7753 29.4099 27.6697 28.072C28.3357 27.1277 28.8481 26.084 29.1881 24.9795C27.4204 24.2319 26.2709 22.4997 26.2689 20.5804Z" fill="white"/>
<path fill-rule="evenodd" clip-rule="evenodd" d="M23.5372 12.4906C24.3487 11.5164 24.7485 10.2642 24.6517 9C23.4119 9.13022 22.2666 9.72278 21.4442 10.6596C20.632 11.5839 20.2205 12.7932 20.3004 14.021C21.5569 14.0339 22.7499 13.4699 23.5372 12.4906Z" fill="white"/>
<path d="M42.057 13.78V8.794H43.497C43.893 8.794 44.226 8.851 44.496 8.965C44.766 9.073 44.985 9.235 45.153 9.451C45.327 9.661 45.45 9.919 45.522 10.225C45.6 10.525 45.639 10.867 45.639 11.251C45.639 11.647 45.597 11.986 45.513 12.268C45.435 12.544 45.333 12.775 45.207 12.961C45.081 13.147 44.937 13.294 44.775 13.402C44.619 13.51 44.46 13.594 44.298 13.654C44.136 13.708 43.983 13.744 43.839 13.762C43.695 13.774 43.575 13.78 43.479 13.78H42.057ZM41.202 8.074V14.5H43.407C43.941 14.5 44.403 14.425 44.793 14.275C45.183 14.125 45.504 13.909 45.756 13.627C46.008 13.339 46.194 12.988 46.314 12.574C46.434 12.154 46.494 11.674 46.494 11.134C46.494 10.102 46.227 9.334 45.693 8.83C45.159 8.326 44.397 8.074 43.407 8.074H41.202ZM48.1509 12.178C48.1509 11.896 48.1869 11.647 48.2589 11.431C48.3369 11.209 48.4419 11.023 48.5739 10.873C48.7059 10.723 48.8589 10.609 49.0329 10.531C49.2129 10.453 49.4019 10.414 49.5999 10.414C49.7979 10.414 49.9839 10.453 50.1579 10.531C50.3379 10.609 50.4939 10.723 50.6259 10.873C50.7579 11.023 50.8599 11.209 50.9319 11.431C51.0099 11.647 51.0489 11.896 51.0489 12.178C51.0489 12.46 51.0099 12.712 50.9319 12.934C50.8599 13.15 50.7579 13.333 50.6259 13.483C50.4939 13.627 50.3379 13.738 50.1579 13.816C49.9839 13.894 49.7979 13.933 49.5999 13.933C49.4019 13.933 49.2129 13.894 49.0329 13.816C48.8589 13.738 48.7059 13.627 48.5739 13.483C48.4419 13.333 48.3369 13.15 48.2589 12.934C48.1869 12.712 48.1509 12.46 48.1509 12.178ZM47.3409 12.178C47.3409 12.52 47.3889 12.838 47.4849 13.132C47.5809 13.426 47.7249 13.684 47.9169 13.906C48.1089 14.122 48.3459 14.293 48.6279 14.419C48.9099 14.539 49.2339 14.599 49.5999 14.599C49.9719 14.599 50.2959 14.539 50.5719 14.419C50.8539 14.293 51.0909 14.122 51.2829 13.906C51.4749 13.684 51.6189 13.426 51.7149 13.132C51.8109 12.838 51.8589 12.52 51.8589 12.178C51.8589 11.836 51.8109 11.518 51.7149 11.224C51.6189 10.924 51.4749 10.666 51.2829 10.45C51.0909 10.228 50.8539 10.054 50.5719 9.928C50.2959 9.802 49.9719 9.739 49.5999 9.739C49.2339 9.739 48.9099 9.802 48.6279 9.928C48.3459 10.054 48.1089 10.228 47.9169 10.45C47.7249 10.666 47.5809 10.924 47.4849 11.224C47.3889 11.518 47.3409 11.836 47.3409 12.178ZM57.5489 14.5L59.0339 9.847H58.2419L57.1979 13.654H57.1799L56.2079 9.847H55.3709L54.4349 13.654H54.4169L53.3639 9.847H52.5179L54.0119 14.5H54.8399L55.7759 10.801H55.7939L56.7389 14.5H57.5489ZM59.9412 9.847V14.5H60.7062V11.872C60.7062 11.662 60.7332 11.47 60.7872 11.296C60.8472 11.116 60.9342 10.96 61.0482 10.828C61.1622 10.696 61.3032 10.594 61.4712 10.522C61.6452 10.45 61.8492 10.414 62.0832 10.414C62.3772 10.414 62.6082 10.498 62.7762 10.666C62.9442 10.834 63.0282 11.062 63.0282 11.35V14.5H63.7932V11.44C63.7932 11.188 63.7662 10.96 63.7122 10.756C63.6642 10.546 63.5772 10.366 63.4512 10.216C63.3252 10.066 63.1602 9.949 62.9562 9.865C62.7522 9.781 62.4972 9.739 62.1912 9.739C61.5012 9.739 60.9972 10.021 60.6792 10.585H60.6612V9.847H59.9412ZM65.1672 8.074V14.5H65.9322V8.074H65.1672ZM67.8553 12.178C67.8553 11.896 67.8913 11.647 67.9633 11.431C68.0413 11.209 68.1463 11.023 68.2783 10.873C68.4103 10.723 68.5633 10.609 68.7373 10.531C68.9173 10.453 69.1063 10.414 69.3043 10.414C69.5023 10.414 69.6883 10.453 69.8623 10.531C70.0423 10.609 70.1983 10.723 70.3303 10.873C70.4623 11.023 70.5643 11.209 70.6363 11.431C70.7143 11.647 70.7533 11.896 70.7533 12.178C70.7533 12.46 70.7143 12.712 70.6363 12.934C70.5643 13.15 70.4623 13.333 70.3303 13.483C70.1983 13.627 70.0423 13.738 69.8623 13.816C69.6883 13.894 69.5023 13.933 69.3043 13.933C69.1063 13.933 68.9173 13.894 68.7373 13.816C68.5633 13.738 68.4103 13.627 68.2783 13.483C68.1463 13.333 68.0413 13.15 67.9633 12.934C67.8913 12.712 67.8553 12.46 67.8553 12.178ZM67.0453 12.178C67.0453 12.52 67.0933 12.838 67.1893 13.132C67.2853 13.426 67.4293 13.684 67.6213 13.906C67.8133 14.122 68.0503 14.293 68.3323 14.419C68.6143 14.539 68.9383 14.599 69.3043 14.599C69.6763 14.599 70.0003 14.539 70.2763 14.419C70.5583 14.293 70.7953 14.122 70.9873 13.906C71.1793 13.684 71.3233 13.426 71.4193 13.132C71.5153 12.838 71.5633 12.52 71.5633 12.178C71.5633 11.836 71.5153 11.518 71.4193 11.224C71.3233 10.924 71.1793 10.666 70.9873 10.45C70.7953 10.228 70.5583 10.054 70.2763 9.928C70.0003 9.802 69.6763 9.739 69.3043 9.739C68.9383 9.739 68.6143 9.802 68.3323 9.928C68.0503 10.054 67.8133 10.228 67.6213 10.45C67.4293 10.666 67.2853 10.924 67.1893 11.224C67.0933 11.518 67.0453 11.836 67.0453 12.178ZM76.7673 14.482C76.6353 14.56 76.4523 14.599 76.2183 14.599C76.0203 14.599 75.8613 14.545 75.7413 14.437C75.6273 14.323 75.5703 14.14 75.5703 13.888C75.3603 14.14 75.1143 14.323 74.8323 14.437C74.5563 14.545 74.2563 14.599 73.9323 14.599C73.7223 14.599 73.5213 14.575 73.3293 14.527C73.1433 14.479 72.9813 14.404 72.8433 14.302C72.7053 14.2 72.5943 14.068 72.5103 13.906C72.4323 13.738 72.3933 13.537 72.3933 13.303C72.3933 13.039 72.4383 12.823 72.5283 12.655C72.6183 12.487 72.7353 12.352 72.8793 12.25C73.0293 12.142 73.1973 12.061 73.3833 12.007C73.5753 11.953 73.7703 11.908 73.9683 11.872C74.1783 11.83 74.3763 11.8 74.5623 11.782C74.7543 11.758 74.9223 11.728 75.0663 11.692C75.2103 11.65 75.3243 11.593 75.4083 11.521C75.4923 11.443 75.5343 11.332 75.5343 11.188C75.5343 11.02 75.5013 10.885 75.4353 10.783C75.3753 10.681 75.2943 10.603 75.1923 10.549C75.0963 10.495 74.9853 10.459 74.8593 10.441C74.7393 10.423 74.6193 10.414 74.4993 10.414C74.1753 10.414 73.9053 10.477 73.6893 10.603C73.4733 10.723 73.3563 10.954 73.3383 11.296H72.5733C72.5853 11.008 72.6453 10.765 72.7533 10.567C72.8613 10.369 73.0053 10.21 73.1853 10.09C73.3653 9.964 73.5693 9.874 73.7973 9.82C74.0313 9.766 74.2803 9.739 74.5443 9.739C74.7543 9.739 74.9613 9.754 75.1653 9.784C75.3753 9.814 75.5643 9.877 75.7323 9.973C75.9003 10.063 76.0353 10.192 76.1373 10.36C76.2393 10.528 76.2903 10.747 76.2903 11.017V13.411C76.2903 13.591 76.2993 13.723 76.3173 13.807C76.3413 13.891 76.4133 13.933 76.5333 13.933C76.5993 13.933 76.6773 13.918 76.7673 13.888V14.482ZM75.5253 12.097C75.4293 12.169 75.3033 12.223 75.1473 12.259C74.9913 12.289 74.8263 12.316 74.6523 12.34C74.4843 12.358 74.3133 12.382 74.1393 12.412C73.9653 12.436 73.8093 12.478 73.6713 12.538C73.5333 12.598 73.4193 12.685 73.3293 12.799C73.2453 12.907 73.2033 13.057 73.2033 13.249C73.2033 13.375 73.2273 13.483 73.2753 13.573C73.3293 13.657 73.3953 13.726 73.4733 13.78C73.5573 13.834 73.6533 13.873 73.7613 13.897C73.8693 13.921 73.9833 13.933 74.1033 13.933C74.3553 13.933 74.5713 13.9 74.7513 13.834C74.9313 13.762 75.0783 13.675 75.1923 13.573C75.3063 13.465 75.3903 13.351 75.4443 13.231C75.4983 13.105 75.5253 12.988 75.5253 12.88V12.097ZM78.2172 12.214C78.2172 11.986 78.2412 11.764 78.2892 11.548C78.3372 11.332 78.4152 11.14 78.5232 10.972C78.6312 10.804 78.7752 10.669 78.9552 10.567C79.1352 10.465 79.3542 10.414 79.6122 10.414C79.8762 10.414 80.1012 10.465 80.2872 10.567C80.4732 10.663 80.6232 10.792 80.7372 10.954C80.8572 11.116 80.9442 11.305 80.9982 11.521C81.0522 11.731 81.0792 11.95 81.0792 12.178C81.0792 12.394 81.0522 12.607 80.9982 12.817C80.9502 13.027 80.8692 13.216 80.7552 13.384C80.6412 13.546 80.4942 13.678 80.3142 13.78C80.1342 13.882 79.9152 13.933 79.6572 13.933C79.4112 13.933 79.1952 13.885 79.0092 13.789C78.8292 13.693 78.6792 13.564 78.5592 13.402C78.4452 13.24 78.3582 13.057 78.2982 12.853C78.2442 12.643 78.2172 12.43 78.2172 12.214ZM81.8172 14.5V8.074H81.0522V10.468H81.0342C80.9502 10.33 80.8452 10.216 80.7192 10.126C80.5992 10.03 80.4702 9.955 80.3322 9.901C80.1942 9.841 80.0562 9.799 79.9182 9.775C79.7802 9.751 79.6512 9.739 79.5312 9.739C79.1772 9.739 78.8652 9.805 78.5952 9.937C78.3312 10.063 78.1092 10.237 77.9292 10.459C77.7552 10.675 77.6232 10.93 77.5332 11.224C77.4492 11.518 77.4072 11.83 77.4072 12.16C77.4072 12.49 77.4522 12.802 77.5422 13.096C77.6322 13.39 77.7642 13.648 77.9382 13.87C78.1182 14.092 78.3402 14.269 78.6042 14.401C78.8742 14.533 79.1892 14.599 79.5492 14.599C79.8732 14.599 80.1702 14.542 80.4402 14.428C80.7102 14.314 80.9082 14.128 81.0342 13.87H81.0522V14.5H81.8172ZM86.4171 12.178C86.4171 11.896 86.4531 11.647 86.5251 11.431C86.6031 11.209 86.7081 11.023 86.8401 10.873C86.9721 10.723 87.1251 10.609 87.2991 10.531C87.4791 10.453 87.6681 10.414 87.8661 10.414C88.0641 10.414 88.2501 10.453 88.4241 10.531C88.6041 10.609 88.7601 10.723 88.8921 10.873C89.0241 11.023 89.1261 11.209 89.1981 11.431C89.2761 11.647 89.3151 11.896 89.3151 12.178C89.3151 12.46 89.2761 12.712 89.1981 12.934C89.1261 13.15 89.0241 13.333 88.8921 13.483C88.7601 13.627 88.6041 13.738 88.4241 13.816C88.2501 13.894 88.0641 13.933 87.8661 13.933C87.6681 13.933 87.4791 13.894 87.2991 13.816C87.1251 13.738 86.9721 13.627 86.8401 13.483C86.7081 13.333 86.6031 13.15 86.5251 12.934C86.4531 12.712 86.4171 12.46 86.4171 12.178ZM85.6071 12.178C85.6071 12.52 85.6551 12.838 85.7511 13.132C85.8471 13.426 85.9911 13.684 86.1831 13.906C86.3751 14.122 86.6121 14.293 86.8941 14.419C87.1761 14.539 87.5001 14.599 87.8661 14.599C88.2381 14.599 88.5621 14.539 88.8381 14.419C89.1201 14.293 89.3571 14.122 89.5491 13.906C89.7411 13.684 89.8851 13.426 89.9811 13.132C90.0771 12.838 90.1251 12.52 90.1251 12.178C90.1251 11.836 90.0771 11.518 89.9811 11.224C89.8851 10.924 89.7411 10.666 89.5491 10.45C89.3571 10.228 89.1201 10.054 88.8381 9.928C88.5621 9.802 88.2381 9.739 87.8661 9.739C87.5001 9.739 87.1761 9.802 86.8941 9.928C86.6121 10.054 86.3751 10.228 86.1831 10.45C85.9911 10.666 85.8471 10.924 85.7511 11.224C85.6551 11.518 85.6071 11.836 85.6071 12.178ZM91.2071 9.847V14.5H91.9721V11.872C91.9721 11.662 91.9991 11.47 92.0531 11.296C92.1131 11.116 92.2001 10.96 92.3141 10.828C92.4281 10.696 92.5691 10.594 92.7371 10.522C92.9111 10.45 93.1151 10.414 93.3491 10.414C93.6431 10.414 93.8741 10.498 94.0421 10.666C94.2101 10.834 94.2941 11.062 94.2941 11.35V14.5H95.0591V11.44C95.0591 11.188 95.0321 10.96 94.9781 10.756C94.9301 10.546 94.8431 10.366 94.7171 10.216C94.5911 10.066 94.4261 9.949 94.2221 9.865C94.0181 9.781 93.7631 9.739 93.4571 9.739C92.7671 9.739 92.2631 10.021 91.9451 10.585H91.9271V9.847H91.2071ZM100.135 9.847V8.452H99.3699V9.847H98.5779V10.522H99.3699V13.483C99.3699 13.699 99.3909 13.873 99.4329 14.005C99.4749 14.137 99.5379 14.239 99.6219 14.311C99.7119 14.383 99.8259 14.434 99.9639 14.464C100.108 14.488 100.279 14.5 100.477 14.5H101.062V13.825H100.711C100.591 13.825 100.492 13.822 100.414 13.816C100.342 13.804 100.285 13.783 100.243 13.753C100.201 13.723 100.171 13.681 100.153 13.627C100.141 13.573 100.135 13.501 100.135 13.411V10.522H101.062V9.847H100.135ZM102.092 8.074V14.5H102.857V11.872C102.857 11.662 102.884 11.47 102.938 11.296C102.998 11.116 103.085 10.96 103.199 10.828C103.313 10.696 103.454 10.594 103.622 10.522C103.796 10.45 104 10.414 104.234 10.414C104.528 10.414 104.759 10.498 104.927 10.666C105.095 10.834 105.179 11.062 105.179 11.35V14.5H105.944V11.44C105.944 11.188 105.917 10.96 105.863 10.756C105.815 10.546 105.728 10.366 105.602 10.216C105.476 10.066 105.311 9.949 105.107 9.865C104.903 9.781 104.648 9.739 104.342 9.739C104.204 9.739 104.06 9.754 103.91 9.784C103.766 9.814 103.625 9.862 103.487 9.928C103.355 9.988 103.235 10.069 103.127 10.171C103.019 10.267 102.935 10.387 102.875 10.531H102.857V8.074H102.092ZM110.504 11.728H107.831C107.843 11.548 107.882 11.38 107.948 11.224C108.014 11.062 108.104 10.921 108.218 10.801C108.332 10.681 108.467 10.588 108.623 10.522C108.785 10.45 108.965 10.414 109.163 10.414C109.355 10.414 109.529 10.45 109.685 10.522C109.847 10.588 109.985 10.681 110.099 10.801C110.219 10.915 110.312 11.053 110.378 11.215C110.45 11.377 110.492 11.548 110.504 11.728ZM111.242 13.024H110.486C110.42 13.33 110.282 13.558 110.072 13.708C109.868 13.858 109.604 13.933 109.28 13.933C109.028 13.933 108.809 13.891 108.623 13.807C108.437 13.723 108.284 13.612 108.164 13.474C108.044 13.33 107.957 13.168 107.903 12.988C107.849 12.802 107.825 12.607 107.831 12.403H111.314C111.326 12.121 111.299 11.824 111.233 11.512C111.173 11.2 111.059 10.912 110.891 10.648C110.729 10.384 110.51 10.168 110.234 10C109.964 9.826 109.622 9.739 109.208 9.739C108.89 9.739 108.596 9.799 108.326 9.919C108.062 10.039 107.831 10.207 107.633 10.423C107.441 10.639 107.291 10.894 107.183 11.188C107.075 11.482 107.021 11.806 107.021 12.16C107.033 12.514 107.084 12.841 107.174 13.141C107.27 13.441 107.411 13.699 107.597 13.915C107.783 14.131 108.011 14.299 108.281 14.419C108.557 14.539 108.881 14.599 109.253 14.599C109.781 14.599 110.219 14.467 110.567 14.203C110.915 13.939 111.14 13.546 111.242 13.024Z" fill="white"/>
<path d="M57.4199 21.9766C59.7177 21.9766 61.2324 23.793 61.2324 26.5987C61.2324 29.4122 59.7266 31.2198 57.4541 31.2198C56.2795 31.2812 55.1731 30.666 54.6055 29.6358H54.5625V34.1202H52.7041V22.0713H54.5029V23.5772H54.5371C55.1299 22.5534 56.2375 21.9385 57.4199 21.9766ZM67.3847 21.9766C69.6826 21.9766 71.1973 23.793 71.1973 26.5987C71.1973 29.4122 69.6914 31.2198 67.4189 31.2198C66.2443 31.2812 65.1379 30.666 64.5703 29.6358H64.5273V34.1202H62.6689V22.0713H64.4677V23.5772H64.5019C65.0947 22.5534 66.2023 21.9385 67.3847 21.9766ZM80.7266 18.5C83.3506 18.5 85.1494 19.9717 85.21 22.1143H83.334C83.2217 20.875 82.1972 20.127 80.7002 20.127C79.2031 20.127 78.1787 20.8838 78.1787 21.9854C78.1787 22.8633 78.833 23.3799 80.4336 23.7754L81.8017 24.1113C84.3496 24.7138 85.4082 25.7373 85.4082 27.5537C85.4082 29.8769 83.5576 31.332 80.6142 31.332C77.8603 31.332 76.001 29.9111 75.8808 27.665L77.7832 27.6651C77.9209 28.8965 79.1172 29.7051 80.7519 29.7051C82.3184 29.7051 83.4453 28.8965 83.4453 27.7861C83.4453 26.8223 82.7656 26.2451 81.1562 25.8496L79.5469 25.4619C77.2666 24.9111 76.208 23.8447 76.208 22.1143C76.208 19.9717 78.0752 18.5 80.7266 18.5ZM96.4317 21.96C99.0567 21.96 100.727 23.75 100.727 26.5987C100.727 29.4551 99.0655 31.2374 96.4317 31.2374C93.7988 31.2374 92.1377 29.4551 92.1377 26.5987C92.1377 23.7501 93.8155 21.96 96.4317 21.96ZM111.48 21.96C113.985 21.96 115.561 23.6807 115.561 26.4258V27.0625H109.166V27.1749C109.106 27.8489 109.339 28.5161 109.805 29.0067C110.271 29.4974 110.925 29.7642 111.602 29.7393C112.503 29.8238 113.354 29.3059 113.692 28.4659L115.457 28.4659C115.207 30.1094 113.606 31.2374 111.559 31.2374C108.925 31.2374 107.29 29.4727 107.29 26.6416C107.29 23.8018 108.934 21.96 111.48 21.96ZM89.4189 19.9288V22.0713H91.1406V23.543H89.4189V28.5342C89.4189 29.3096 89.7637 29.6709 90.5205 29.6709C90.7249 29.6674 90.929 29.653 91.1318 29.6279V31.0908C90.7916 31.1544 90.4457 31.1832 90.0996 31.1768C88.2666 31.1768 87.5518 30.4883 87.5518 28.7324V23.543H86.2354V22.0713H87.5517V19.9288H89.4189ZM47.0664 18.7071L51.5498 31.1251H49.5107L48.375 27.7686H43.6416L42.5049 31.1251H40.5L44.9834 18.7071H47.0664ZM106.252 21.9766C106.466 21.9759 106.68 21.9991 106.889 22.0459V23.7842C106.618 23.7016 106.336 23.6637 106.054 23.6719C105.507 23.6498 104.979 23.8675 104.606 24.268C104.234 24.6684 104.055 25.2116 104.117 25.7549V31.125H102.259V22.0713H104.031V23.6123H104.074C104.321 22.6203 105.23 21.9376 106.252 21.9766ZM96.4317 23.4913C94.9258 23.4913 94.0313 24.6534 94.0313 26.5987C94.0313 28.5606 94.9258 29.7051 96.4317 29.7051C97.9375 29.7051 98.833 28.5606 98.833 26.5987C98.833 24.6446 97.9375 23.4913 96.4317 23.4913ZM56.9297 23.5606C55.5098 23.5606 54.5547 24.7911 54.5547 26.5987C54.5547 28.4229 55.5098 29.6446 56.9297 29.6446C58.375 29.6446 59.3223 28.4483 59.3223 26.5987C59.3223 24.7657 58.375 23.5606 56.9297 23.5606ZM66.8945 23.5606C65.4746 23.5606 64.5195 24.7911 64.5195 26.5987C64.5195 28.4229 65.4746 29.6446 66.8945 29.6446C68.3398 29.6446 69.2871 28.4483 69.2871 26.5987C69.2871 24.7657 68.3398 23.5606 66.8945 23.5606ZM46.0342 20.7725H45.9825L44.1318 26.2198H47.8838L46.0342 20.7725ZM111.48 23.4659C110.869 23.4622 110.282 23.7029 109.849 24.1344C109.416 24.5659 109.173 25.1525 109.175 25.7637H113.701C113.735 25.1581 113.514 24.5658 113.093 24.1296C112.671 23.6934 112.087 23.4528 111.48 23.4659Z" fill="white"/>
</svg>
