<svg width="256" height="256" viewBox="0 0 256 256" fill="none" xmlns="http://www.w3.org/2000/svg">
<g clip-path="url(#clip0_3947_6934)">
<circle cx="128" cy="128" r="128" fill="#EDEEEF"/>
<mask id="mask0_3947_6934" style="mask-type:alpha" maskUnits="userSpaceOnUse" x="0" y="0" width="256" height="256">
<circle cx="128" cy="128" r="128" fill="#EDEEEF"/>
</mask>
<g mask="url(#mask0_3947_6934)">
<line x1="-22" y1="9.85736" x2="278" y2="9.85736" stroke="#E4E4E4" stroke-width="2"/>
<line x1="-22" y1="63.4288" x2="278" y2="63.4288" stroke="#E4E4E4" stroke-width="2"/>
<line x1="-22" y1="117" x2="278" y2="117" stroke="#E4E4E4" stroke-width="2"/>
<line x1="130.162" y1="-32" x2="130.162" y2="268" stroke="#E4E4E4" stroke-width="2"/>
<line x1="60.3948" y1="-32" x2="60.3948" y2="268" stroke="#E4E4E4" stroke-width="2"/>
<line x1="199.93" y1="-32" x2="199.93" y2="268" stroke="#E4E4E4" stroke-width="2"/>
<line x1="-22" y1="170.571" x2="278" y2="170.571" stroke="#E4E4E4" stroke-width="2"/>
<line x1="-22" y1="224.143" x2="278" y2="224.143" stroke="#E4E4E4" stroke-width="2"/>
<rect x="50" y="80" width="156" height="28" rx="14" fill="#D1D1D1"/>
<rect x="60" y="88" width="136" height="12" rx="6" fill="#FFD60A"/>
<g filter="url(#filter0_f_3947_6934)">
<rect x="66.7047" y="89.0195" width="122.667" height="10.8235" rx="5.41176" fill="#FFD60A"/>
</g>
<g opacity="0.6" filter="url(#filter1_f_3947_6934)">
<rect x="66" y="92" width="126" height="8" rx="4" fill="#F0BA09"/>
</g>
<path d="M29.0379 202.892C28.763 202.893 28.5076 202.996 28.2378 203.028C22.5185 203.704 18 211.329 18 220.751C18 221.527 18.085 222.271 18.1438 223.021H28.2378V223.096H39.9473H40.0113H62.0227H128.712C128.645 222.3 128.569 221.517 128.569 220.691C128.569 210.861 133.496 202.893 139.574 202.892H62.0227H40.0113H29.0379Z" fill="#3B68FF"/>
<path d="M73.0057 94C72.7436 94.0005 72.4948 94.0914 72.2378 94.1203C68.692 94.5219 65.6083 97.6136 63.7757 102.148C63.6508 102.459 63.552 102.801 63.4399 103.125C62.8738 104.739 62.4371 106.49 62.2083 108.372C62.0742 109.48 62 110.627 62 111.799V202.476H139.552H139.808V202.521C145.765 202.747 150.557 210.586 150.557 220.275V243.365C150.49 244.158 150.557 244.947 150.557 245.77C150.557 246.968 150.644 248.128 150.782 249.258C150.823 249.589 150.905 249.896 150.956 250.22C150.966 250.286 150.976 250.35 150.992 250.415C150.992 250.436 151.002 250.455 151.007 250.476C151.012 250.52 151.012 250.566 151.023 250.611C151.048 250.756 151.074 250.903 151.099 251.047C151.191 251.499 151.248 251.979 151.355 252.415C151.36 252.419 151.355 252.425 151.355 252.43C151.36 252.449 151.371 252.47 151.371 252.49C151.55 253.172 151.775 253.806 151.995 254.444C152.021 254.519 152.051 254.595 152.077 254.669C152.169 254.917 152.236 255.182 152.333 255.421C152.635 256.169 152.988 256.862 153.357 257.526C153.423 257.644 153.464 257.786 153.531 257.901C153.541 257.918 153.556 257.93 153.567 257.947C153.981 258.657 154.437 259.295 154.923 259.886C154.944 259.906 154.954 259.927 154.974 259.946C155.061 260.046 155.153 260.135 155.246 260.232C155.261 260.25 155.276 260.272 155.292 260.292C155.665 260.708 156.06 261.078 156.459 261.419C156.469 261.429 156.479 261.44 156.49 261.449C156.658 261.588 156.817 261.73 156.986 261.855C156.996 261.859 156.996 261.866 157.001 261.87C157.554 262.275 158.122 262.636 158.716 262.892C159.371 263.175 160.052 263.35 160.748 263.433C160.764 263.435 160.779 263.447 160.795 263.448C161.051 263.478 161.301 263.569 161.562 263.569C167.644 263.569 172.568 255.6 172.568 245.77V134.408V114.204V113.753V111.799C172.568 110.57 172.645 109.365 172.793 108.206C172.926 107.147 173.126 106.12 173.367 105.14C173.372 105.12 173.382 105.099 173.382 105.079C173.454 104.812 173.541 104.564 173.623 104.313C173.653 104.215 173.689 104.124 173.72 104.027C173.914 103.39 174.109 102.769 174.344 102.178C174.472 101.858 174.621 101.566 174.759 101.261C175.03 100.668 175.312 100.096 175.624 99.5623C175.629 99.5561 175.634 99.5532 175.639 99.5474C175.783 99.3093 175.921 99.0808 176.075 98.8557C176.377 98.391 176.694 97.9537 177.032 97.5482C177.042 97.5342 177.052 97.5164 177.062 97.503C177.185 97.3572 177.324 97.2331 177.446 97.097C177.559 96.9738 177.666 96.8377 177.784 96.7213C178.076 96.4283 178.373 96.1734 178.68 95.9242C178.701 95.9064 178.721 95.8823 178.741 95.8645C178.982 95.6731 179.228 95.4884 179.479 95.3229C179.499 95.3113 179.509 95.2897 179.525 95.2781C179.955 95.0044 180.405 94.8029 180.856 94.6167C180.861 94.6138 180.866 94.6042 180.871 94.6013C180.907 94.5864 180.948 94.5734 180.984 94.5566C181.142 94.4931 181.301 94.3973 181.465 94.3459C182.146 94.1308 182.852 94.0005 183.574 94H172.568H96.7928H73.0057Z" fill="#3B68FF"/>
<rect x="126" y="164" width="36" height="8" rx="4" fill="white" fill-opacity="0.4"/>
<rect x="138" y="182" width="24" height="8" rx="4" fill="white" fill-opacity="0.4"/>
<rect x="138" y="202" width="24" height="8" rx="4" fill="white" fill-opacity="0.4"/>
<rect x="72" y="164" width="40" height="8" rx="4" fill="white" fill-opacity="0.4"/>
<rect x="72" y="182" width="52" height="8" rx="4" fill="white" fill-opacity="0.4"/>
<rect x="72" y="202" width="52" height="8" rx="4" fill="white" fill-opacity="0.4"/>
<path d="M139.574 202C133.496 202 128.569 209.969 128.569 219.799C128.569 220.625 128.646 221.408 128.713 222.204H62.0229H40.0116V242.333H40.2036C40.1032 243.3 40.0116 244.282 40.0116 245.294C40.0116 254.135 44.0028 261.421 49.2256 262.808C49.8107 262.963 50.4056 263.093 51.0173 263.093H62.0229H150.58H160.817V262.973C160.106 262.892 159.41 262.706 158.739 262.416C158.145 262.161 157.577 261.799 157.024 261.394C157.019 261.39 157.019 261.384 157.009 261.379C156.84 261.254 156.681 261.112 156.512 260.973C156.502 260.964 156.492 260.953 156.482 260.943C156.082 260.602 155.688 260.232 155.315 259.816C155.192 259.679 155.064 259.555 154.946 259.41C154.46 258.819 154.004 258.181 153.59 257.471C153.579 257.454 153.564 257.442 153.554 257.426C153.487 257.311 153.446 257.168 153.38 257.05C153.011 256.386 152.658 255.693 152.356 254.945C152.259 254.706 152.192 254.441 152.1 254.193C152.074 254.119 152.044 254.043 152.018 253.968C151.788 253.306 151.557 252.651 151.378 251.939C151.271 251.503 151.214 251.023 151.122 250.571C151.097 250.427 151.071 250.281 151.045 250.135C151.035 250.07 151.025 250.005 151.015 249.94C150.999 249.874 150.989 249.81 150.979 249.744C150.928 249.42 150.846 249.114 150.805 248.782C150.8 248.761 150.79 248.743 150.79 248.722C150.651 247.612 150.58 246.47 150.58 245.294V242.889V219.799C150.58 210.111 145.788 202.271 139.83 202.045C139.743 202.042 139.662 202 139.574 202Z" fill="#0A33FF"/>
<rect x="100" y="116" width="32" height="32" rx="16" fill="white"/>
<path fill-rule="evenodd" clip-rule="evenodd" d="M124.083 127.533C124.587 128.07 124.56 128.914 124.023 129.417L114.541 138.306C114.041 138.775 113.267 138.788 112.751 138.337L108.01 134.189C107.456 133.704 107.4 132.862 107.885 132.307C108.37 131.753 109.212 131.697 109.766 132.182L113.598 135.535L122.199 127.472C122.736 126.968 123.58 126.995 124.083 127.533Z" fill="#3B68FF"/>
</g>
<path d="M29.0379 202C28.763 202 28.5076 202.103 28.2378 202.136C22.5185 202.812 18 210.437 18 219.859C18 220.635 18.085 221.379 18.1438 222.129L28.2378 222.204H39.9473H40.0113H62.0227H128.712C128.645 221.408 128.569 220.625 128.569 219.799C128.569 209.969 133.496 202 139.574 202H62.0227H40.0113H29.0379Z" fill="#3B68FF"/>
</g>
<defs>
<filter id="filter0_f_3947_6934" x="52.2733" y="74.5882" width="151.529" height="39.6863" filterUnits="userSpaceOnUse" color-interpolation-filters="sRGB">
<feFlood flood-opacity="0" result="BackgroundImageFix"/>
<feBlend mode="normal" in="SourceGraphic" in2="BackgroundImageFix" result="shape"/>
<feGaussianBlur stdDeviation="7.21569" result="effect1_foregroundBlur_3947_6934"/>
</filter>
<filter id="filter1_f_3947_6934" x="62" y="88" width="134" height="16" filterUnits="userSpaceOnUse" color-interpolation-filters="sRGB">
<feFlood flood-opacity="0" result="BackgroundImageFix"/>
<feBlend mode="normal" in="SourceGraphic" in2="BackgroundImageFix" result="shape"/>
<feGaussianBlur stdDeviation="2" result="effect1_foregroundBlur_3947_6934"/>
</filter>
<clipPath id="clip0_3947_6934">
<rect width="256" height="256" fill="white"/>
</clipPath>
</defs>
</svg>
