<svg width="131" height="40" viewBox="0 0 131 40" fill="none" xmlns="http://www.w3.org/2000/svg">
<rect x="0.5" width="130" height="40" rx="6" fill="black"/>
<path d="M90.8474 22.6906C90.9304 22.9557 90.9996 23.2347 91.0826 23.4998C91.1102 23.6114 91.1379 23.7369 91.1794 23.8485C91.2209 23.9601 91.2348 24.0996 91.2624 24.2113C91.2901 24.3368 91.3178 24.4484 91.3316 24.574C91.3454 24.6856 91.3731 24.7972 91.3731 24.8948C91.3731 24.9227 91.3731 24.9646 91.3869 25.0065C91.3869 25.0483 91.3869 25.0902 91.3869 25.146C91.3869 25.3971 91.3454 25.6482 91.2763 25.8854C91.2071 26.1225 91.0964 26.3597 90.9719 26.569C90.8474 26.7922 90.6814 27.0014 90.5015 27.1967C90.3217 27.406 90.128 27.5874 89.9066 27.7687C89.6991 27.9501 89.4639 28.1035 89.2287 28.257C88.9935 28.4105 88.7583 28.55 88.5093 28.6616L88.1357 27.8943C88.4401 27.7408 88.7306 27.5595 89.0212 27.3642C89.3117 27.1688 89.5607 26.9456 89.7821 26.7085C90.0034 26.4713 90.1833 26.2202 90.3217 25.9551C90.46 25.69 90.5292 25.411 90.5292 25.132C90.5292 25.1181 90.5292 25.0902 90.5292 25.0623C90.5292 25.0344 90.5292 24.9925 90.5153 24.9646C90.5015 24.8809 90.4877 24.7693 90.4738 24.6716C90.46 24.56 90.4323 24.4484 90.4047 24.3368C90.377 24.2252 90.3493 24.1136 90.3217 24.002C90.294 23.8904 90.2663 23.7788 90.2386 23.6811C90.1695 23.43 90.1003 23.1928 90.0173 22.9417L90.8474 22.6906ZM91.0549 20.9049L90.3493 21.6164L89.6299 20.8909L90.3355 20.1794L91.0549 20.9049Z" fill="white"/>
<path d="M92.894 25.5224C92.9355 24.8528 92.9632 24.225 92.977 23.6391C92.9909 23.0531 92.9909 22.4951 92.977 21.9929C92.9632 21.4906 92.9494 21.0442 92.9217 20.6396C92.894 20.235 92.8664 19.9002 92.8387 19.6212C92.811 19.3422 92.7972 19.119 92.7695 18.9655C92.7557 18.812 92.7419 18.7283 92.7419 18.7283L93.5996 18.6028C93.5996 18.6167 93.6273 18.7981 93.6688 19.1329C93.6826 19.3003 93.7103 19.4817 93.7241 19.677C93.738 19.8723 93.7518 20.0816 93.7656 20.3048C93.7795 20.528 93.7933 20.7373 93.8071 20.9326C93.821 21.1279 93.821 21.3232 93.8348 21.5046C93.8486 22.0487 93.8625 22.6485 93.8486 23.3321C93.8486 24.0157 93.821 24.7551 93.7656 25.5643L92.894 25.5224Z" fill="white"/>
<path d="M104.738 24.8116C104.628 24.672 104.531 24.5186 104.462 24.3372C103.701 25.1464 102.483 25.551 100.837 25.551C99.9515 25.551 99.2321 25.4393 98.6511 25.2301C98.07 25.0208 97.6549 24.7 97.3921 24.2535C97.3091 24.114 97.2399 23.9606 97.1984 23.8071C97.1569 23.6536 97.1292 23.5002 97.1154 23.3467C97.1016 23.1933 97.1016 23.0537 97.1154 22.9003C97.1292 22.7608 97.1569 22.6213 97.1846 22.4818C97.2261 22.3423 97.2537 22.2167 97.2952 22.1051C97.3368 21.9935 97.3644 21.8958 97.3921 21.8121C97.4198 21.7284 97.4474 21.6726 97.4751 21.6168C97.5028 21.575 97.5166 21.547 97.5166 21.5331L98.2637 21.9516C98.2637 21.9516 98.2498 21.9795 98.2222 22.0353C98.1945 22.0911 98.1668 22.1609 98.1392 22.2585C98.1115 22.3423 98.07 22.4539 98.0423 22.5794C98.0147 22.705 97.987 22.8305 97.987 22.9561C97.9732 23.0816 97.987 23.2212 98.0147 23.3607C98.0423 23.5002 98.0838 23.6257 98.153 23.7513C98.3329 24.0443 98.6372 24.2675 99.0938 24.4209C99.5503 24.5744 100.131 24.6441 100.837 24.6441C101.473 24.6441 102.027 24.5883 102.469 24.4767C102.912 24.3651 103.286 24.1838 103.59 23.9466C103.728 23.835 103.839 23.7234 103.936 23.5978C104.033 23.4723 104.116 23.3467 104.185 23.2072C104.254 23.0677 104.31 22.9421 104.351 22.8026C104.393 22.6631 104.434 22.5376 104.476 22.3981L105.306 22.6213C105.292 22.6771 105.278 22.7468 105.264 22.8166C105.25 22.8863 105.223 22.97 105.209 23.0537C105.167 23.2212 105.153 23.3746 105.167 23.4862C105.167 23.6118 105.195 23.7373 105.223 23.8768C105.25 24.0164 105.319 24.1419 105.402 24.2396C105.61 24.5046 105.956 24.6302 106.44 24.6302C106.565 24.6302 106.661 24.672 106.744 24.7558C106.827 24.8395 106.869 24.9371 106.869 25.0627C106.869 25.1882 106.827 25.2859 106.744 25.3696C106.661 25.4533 106.565 25.4952 106.44 25.4952H106.399C105.651 25.5231 105.098 25.2859 104.738 24.8116ZM101.003 21.2262L100.297 21.9377L99.578 21.2262L100.284 20.5147L101.003 21.2262ZM102.788 21.2262L102.082 21.9377L101.363 21.2122L102.068 20.5007L102.788 21.2262Z" fill="white"/>
<path d="M106.066 25.104C106.066 24.9784 106.108 24.8808 106.191 24.7971C106.274 24.7134 106.384 24.6715 106.495 24.6715C106.813 24.6715 107.118 24.6576 107.38 24.6297C107.657 24.6018 107.892 24.5599 108.1 24.5041C108.307 24.4623 108.487 24.4065 108.639 24.3367C108.792 24.2809 108.902 24.2251 108.971 24.1693C109.013 24.1414 109.041 24.1135 109.068 24.0856C109.096 24.0577 109.11 24.0298 109.137 24.0019H108.695C108.543 24.0019 108.39 23.9879 108.238 23.96C108.086 23.9321 107.948 23.9042 107.823 23.8484C107.699 23.7926 107.574 23.7368 107.463 23.6671C107.353 23.5973 107.27 23.5136 107.187 23.4159C107.145 23.3601 107.104 23.3043 107.062 23.2206C107.021 23.1509 106.993 23.0532 106.965 22.9556C106.938 22.8579 106.924 22.7463 106.924 22.6207C106.924 22.4952 106.924 22.3696 106.952 22.2162C106.993 21.993 107.048 21.7837 107.131 21.6023C107.214 21.421 107.311 21.2536 107.422 21.1001C107.546 20.9327 107.699 20.7932 107.865 20.7095C108.031 20.6258 108.197 20.5839 108.363 20.5839C108.75 20.5839 109.096 20.7513 109.4 21.1001C109.539 21.2536 109.649 21.421 109.76 21.6163C109.857 21.8116 109.94 22.0209 110.009 22.2441C110.078 22.4673 110.12 22.7045 110.134 22.9416C110.161 23.1788 110.161 23.4159 110.134 23.6531C110.12 23.7647 110.092 23.8903 110.064 24.0019C110.051 24.0437 110.037 24.0856 110.023 24.1414C110.009 24.1972 109.981 24.267 109.94 24.3367C109.898 24.4065 109.843 24.4902 109.774 24.5739C109.705 24.6576 109.622 24.7413 109.511 24.825C109.373 24.9366 109.193 25.0342 108.985 25.118C108.778 25.2017 108.543 25.2714 108.28 25.3272C108.017 25.383 107.74 25.4249 107.45 25.4528C107.159 25.4807 106.855 25.4946 106.564 25.4946H106.495C106.37 25.4946 106.274 25.4528 106.191 25.3691C106.121 25.3272 106.066 25.2296 106.066 25.104ZM108.958 19.0912L108.252 19.8027L107.533 19.0772L108.238 18.3657L108.958 19.0912ZM108.363 21.4628C108.321 21.4628 108.28 21.4768 108.224 21.5186C108.169 21.5605 108.114 21.6163 108.058 21.7C108.003 21.7837 107.948 21.8813 107.906 21.993C107.865 22.1046 107.823 22.2441 107.795 22.3836C107.754 22.6068 107.782 22.7603 107.865 22.8719C107.92 22.9416 108.003 22.9974 108.114 23.0393C108.224 23.0811 108.363 23.109 108.515 23.123C108.667 23.123 108.805 23.1369 108.93 23.1369C109.054 23.1369 109.165 23.1369 109.262 23.123C109.248 22.844 109.193 22.5649 109.096 22.3138C109.013 22.0627 108.888 21.8534 108.736 21.686C108.695 21.6302 108.626 21.5884 108.556 21.5326C108.529 21.4907 108.46 21.4628 108.363 21.4628Z" fill="white"/>
<path d="M113.343 25.5366C113.025 25.5366 112.748 25.4947 112.527 25.4249C112.305 25.3552 112.112 25.2296 111.945 25.0762C111.849 24.9785 111.779 24.8809 111.724 24.7693C111.669 24.6576 111.641 24.546 111.613 24.4344C111.586 24.3228 111.572 24.2252 111.572 24.1275C111.572 24.0299 111.572 23.9462 111.572 23.8764V23.7927C111.572 23.7927 111.572 23.7369 111.572 23.6392C111.572 23.5416 111.572 23.4021 111.572 23.2207C111.572 23.0393 111.572 22.844 111.572 22.6069C111.572 22.3836 111.572 22.1325 111.572 21.8814C111.572 21.6303 111.572 21.3652 111.558 21.1002C111.558 20.8211 111.544 20.57 111.53 20.305C111.517 20.0539 111.503 19.8167 111.489 19.6074C111.475 19.3982 111.447 19.2168 111.42 19.0773L112.278 18.9238C112.305 19.0773 112.333 19.2586 112.347 19.4679C112.361 19.6911 112.388 19.9143 112.402 20.1794C112.416 20.4305 112.43 20.6956 112.43 20.9746C112.43 21.2536 112.444 21.5187 112.444 21.7838C112.444 22.0349 112.444 22.286 112.444 22.5232C112.444 22.7603 112.444 22.9696 112.444 23.1509C112.444 23.3323 112.444 23.4858 112.444 23.6113C112.444 23.7369 112.444 23.8066 112.444 23.8206V23.9043C112.444 24.0299 112.444 24.1415 112.457 24.2391C112.471 24.3368 112.513 24.4205 112.582 24.4763C112.706 24.6158 112.955 24.6855 113.315 24.6855H113.357C113.412 24.6855 113.467 24.6995 113.523 24.7274C113.578 24.7553 113.62 24.7832 113.661 24.8251C113.703 24.8669 113.73 24.9088 113.758 24.9646C113.786 25.0204 113.799 25.0762 113.799 25.132C113.799 25.2575 113.758 25.3552 113.675 25.4389C113.606 25.5226 113.467 25.5366 113.343 25.5366Z" fill="white"/>
<path d="M112.693 25.1046C112.693 24.979 112.734 24.8813 112.817 24.7976C112.9 24.7139 112.997 24.6721 113.122 24.6721H113.606C113.703 24.6721 113.813 24.6721 113.938 24.6721C114.062 24.6721 114.173 24.6581 114.298 24.6581C114.422 24.6581 114.533 24.6302 114.657 24.6023C114.768 24.5744 114.879 24.5465 114.976 24.5047C115.072 24.4628 115.155 24.421 115.238 24.3512C115.308 24.2954 115.363 24.2257 115.404 24.1419C115.46 24.0164 115.474 23.835 115.46 23.6118C115.432 23.3747 115.377 23.1096 115.28 22.8027C115.252 22.705 115.211 22.6074 115.169 22.4957C115.128 22.3841 115.086 22.2865 115.045 22.1888C115.003 22.0772 114.948 21.9656 114.906 21.854L115.681 21.4634C115.681 21.4634 115.695 21.4913 115.723 21.5471C115.75 21.6029 115.778 21.6866 115.819 21.7703C115.861 21.868 115.903 21.9796 115.958 22.1051C116.013 22.2307 116.055 22.3702 116.096 22.5097C116.373 23.3467 116.401 24.0024 116.193 24.4768C115.986 24.9511 115.626 25.258 115.1 25.4115C115.017 25.4394 114.92 25.4533 114.796 25.4673C114.671 25.4812 114.547 25.4952 114.422 25.4952C114.298 25.4952 114.173 25.5091 114.062 25.5091C113.952 25.5091 113.855 25.5091 113.8 25.5091H113.163H113.122C112.997 25.5091 112.9 25.4673 112.817 25.3836C112.72 25.3278 112.693 25.2301 112.693 25.1046ZM114.782 27.0437L114.076 27.7552L113.357 27.0437L114.062 26.3322L114.782 27.0437ZM116.58 27.0577L115.875 27.7692L115.155 27.0437L115.861 26.3322L116.58 27.0577Z" fill="white"/>
<path d="M119.264 22.6904C119.347 22.9555 119.416 23.2345 119.499 23.4996C119.527 23.6112 119.555 23.7367 119.596 23.8484C119.638 23.96 119.652 24.0995 119.679 24.2111C119.707 24.3366 119.735 24.4482 119.748 24.5738C119.762 24.6854 119.79 24.797 119.79 24.8947C119.79 24.9226 119.79 24.9644 119.804 25.0063C119.804 25.0481 119.804 25.09 119.804 25.1458C119.804 25.3969 119.762 25.648 119.693 25.8852C119.624 26.1223 119.513 26.3595 119.389 26.5688C119.264 26.792 119.098 27.0013 118.918 27.1966C118.738 27.4058 118.545 27.5872 118.323 27.7686C118.116 27.9499 117.881 28.1034 117.646 28.2568C117.41 28.4103 117.175 28.5498 116.926 28.6614L116.553 27.8941C116.857 27.7407 117.147 27.5593 117.438 27.364C117.729 27.1687 117.978 26.9455 118.199 26.7083C118.42 26.4711 118.6 26.22 118.738 25.9549C118.877 25.6899 118.946 25.4109 118.946 25.1318C118.946 25.1179 118.946 25.09 118.946 25.0621C118.946 25.0342 118.946 24.9923 118.932 24.9644C118.918 24.8807 118.904 24.7691 118.891 24.6715C118.877 24.5598 118.849 24.4482 118.821 24.3366C118.794 24.225 118.766 24.1134 118.738 24.0018C118.711 23.8902 118.683 23.7786 118.655 23.6809C118.586 23.4298 118.517 23.1927 118.434 22.9415L119.264 22.6904Z" fill="white"/>
<path d="M122.71 25.5226C122.571 25.5226 122.405 25.5087 122.212 25.4668C122.018 25.425 121.838 25.3831 121.644 25.3273C121.451 25.2715 121.285 25.2157 121.133 25.146C120.98 25.0762 120.856 25.0065 120.787 24.9367L121.146 24.1136C121.257 24.1833 121.382 24.2531 121.534 24.3229C121.686 24.3926 121.838 24.4484 122.018 24.4903C122.184 24.5321 122.364 24.574 122.544 24.6019C122.724 24.6298 122.903 24.6298 123.069 24.6158C123.235 24.6019 123.388 24.56 123.54 24.5042C123.678 24.4484 123.803 24.3508 123.899 24.2392C123.982 24.1554 123.983 23.9741 123.927 23.7369C123.9 23.5974 123.844 23.444 123.775 23.2905C123.706 23.137 123.623 22.9836 123.512 22.8162C123.415 22.6627 123.305 22.5092 123.18 22.3558C123.056 22.2023 122.931 22.0628 122.793 21.9373C122.654 21.8117 122.53 21.7001 122.392 21.6024C122.253 21.5048 122.115 21.4211 121.99 21.3653L122.336 20.5701C122.502 20.6538 122.682 20.7514 122.848 20.877C123.028 21.0025 123.194 21.1421 123.36 21.2955C123.526 21.449 123.678 21.6303 123.83 21.8117C123.982 21.9931 124.121 22.1884 124.232 22.3837C124.356 22.579 124.453 22.7743 124.55 22.9696C124.633 23.1649 124.702 23.3602 124.743 23.5416C124.785 23.709 124.799 23.8485 124.799 23.988C124.799 24.1136 124.785 24.2392 124.757 24.3368C124.73 24.4345 124.702 24.5321 124.66 24.6019C124.619 24.6856 124.577 24.7414 124.536 24.7972C124.273 25.1181 123.899 25.3413 123.415 25.4389C123.305 25.4668 123.194 25.4947 123.069 25.4947C122.959 25.5226 122.82 25.5226 122.71 25.5226Z" fill="white"/>
<path d="M41.1375 20.7929C41.5248 20.7929 41.8569 20.6534 42.1336 20.3744C42.2166 20.2907 42.2858 20.193 42.3411 20.1093C42.3964 20.207 42.4656 20.2907 42.5348 20.3744C42.8115 20.6534 43.1297 20.7929 43.5171 20.7929C43.9044 20.7929 44.2365 20.6534 44.4993 20.3744C44.776 20.0954 44.9005 19.7606 44.9005 19.3699C44.9005 18.9793 44.7622 18.6445 44.4993 18.3794C44.2365 18.1144 43.9044 17.9749 43.5171 17.9749C43.1297 17.9749 42.7976 18.1144 42.5348 18.3794C42.4518 18.4631 42.3826 18.5468 42.3411 18.6445C42.2858 18.5468 42.2166 18.4631 42.1336 18.3794C41.8569 18.1004 41.5248 17.9749 41.1375 17.9749C40.7639 17.9749 40.418 18.1144 40.1552 18.3934C39.8923 18.6724 39.7401 18.9933 39.7401 19.3839C39.7401 19.7745 39.8785 20.1093 40.1413 20.3884C40.418 20.6534 40.7501 20.7929 41.1375 20.7929Z" fill="white"/>
<path d="M69.5406 18.3939C69.2085 18.3939 68.9319 18.5055 68.7243 18.7566C68.503 18.9938 68.3923 19.2868 68.3923 19.6216C68.3923 19.8587 68.4615 20.2215 68.5721 20.6958C68.6828 21.1562 68.752 21.5189 68.752 21.77C68.752 22.621 68.1433 23.0535 66.9396 23.0535H66.5108H65.819H65.5285C64.4494 23.0535 63.4256 22.5792 62.4433 21.6305C61.295 20.4865 60.5341 19.7192 60.1329 19.3147C58.7217 17.9335 57.5181 16.8454 56.5082 16.0083C56.3421 15.8688 56.2591 15.7153 56.2591 15.5479C56.2591 15.3805 56.3698 15.255 56.5635 15.1712C58.5834 14.376 60.7555 13.7064 63.052 13.1763C63.7715 13.0228 64.1173 12.6322 64.1173 12.0323C64.1173 11.2371 63.6608 10.8325 62.7338 10.8325C62.5817 10.8325 62.388 10.8604 62.1804 10.9023C58.8047 11.6975 56.3421 12.5903 54.765 13.5529C54.0594 13.9854 53.7135 14.6969 53.7135 15.6735C53.7135 16.1478 53.7827 16.5245 53.9487 16.8175C54.2254 17.3057 55.1247 18.2265 56.6603 19.5518C58.03 20.7377 58.7079 21.5468 58.7079 21.9653C58.7079 22.5373 58.1268 22.8721 56.9647 22.9977C56.7157 23.0256 55.7749 23.0256 54.1286 23.0256H53.7827H53.3815C52.2885 23.0256 51.666 22.5792 51.4861 21.6863C51.3893 21.1841 51.3339 20.8772 51.3063 20.7516C51.1541 20.3889 50.8774 20.2075 50.4623 20.2075C50.0888 20.2075 49.7844 20.4447 49.5769 20.933C49.231 21.7142 49.0235 22.1746 48.9128 22.3002C48.1934 23.2209 46.2842 23.6813 43.199 23.6813H41.7049C39.602 23.6813 38.1632 23.4441 37.3884 22.9419C36.8627 22.6071 36.5998 22.0909 36.5998 21.4073C36.5998 21.212 36.6413 20.9051 36.7243 20.5144C36.8073 20.1099 36.8489 19.8169 36.8489 19.6216C36.8489 19.0217 36.5583 18.7287 35.9634 18.7287C35.41 18.7287 34.9673 19.217 34.6768 20.1936C34.4693 20.8772 34.3586 21.5887 34.3586 22.3281C34.3586 25.174 36.7658 26.597 41.5804 26.597C46.2012 26.597 49.0789 25.8716 50.158 24.4067C50.6284 25.4112 51.5553 25.9134 52.9249 25.9134H53.0633H53.7689H53.7965C55.8856 25.9134 57.3521 25.7879 58.2098 25.5228C59.5242 25.1182 60.3266 24.2812 60.6309 23.0256C61.9868 24.9508 63.6746 25.9134 65.6807 25.9134H65.8052H66.4969H66.7736C68.1294 25.9134 69.1809 25.5089 69.9556 24.7137C70.7304 23.9185 71.1039 22.8303 71.1039 21.4491C71.0901 19.4123 70.5782 18.3939 69.5406 18.3939Z" fill="white"/>
<path d="M67.5355 27.4336C67.1619 27.4336 66.8161 27.5731 66.5532 27.8521C66.3734 28.0335 66.2627 28.2427 66.1935 28.466C66.1243 28.2288 66.0136 28.0335 65.8338 27.8521C65.5571 27.5731 65.2389 27.4336 64.8515 27.4336C64.4641 27.4336 64.1321 27.5731 63.8554 27.8382C63.5787 28.1032 63.4404 28.4381 63.4404 28.8287C63.4404 29.2193 63.5787 29.5541 63.8554 29.8331C64.1321 30.1122 64.4641 30.2517 64.8515 30.2517C65.2389 30.2517 65.5709 30.1122 65.8338 29.8331C66.0136 29.6518 66.1105 29.4425 66.1797 29.2054C66.2488 29.4425 66.3457 29.6518 66.5255 29.8331C66.8022 30.1122 67.1204 30.2517 67.5078 30.2517C67.8952 30.2517 68.2272 30.1122 68.5039 29.8331C68.7806 29.5541 68.919 29.2193 68.919 28.8287C68.919 28.4381 68.7806 28.1032 68.5039 27.8382C68.2272 27.5731 67.9367 27.4336 67.5355 27.4336Z" fill="white"/>
<path d="M84.6899 20.3751C84.1918 19.5799 83.4724 19.1754 82.5455 19.1754C81.7707 19.1754 81.0098 19.5939 80.2351 20.4309C80.0829 20.6123 79.6955 21.1424 79.0868 22.0213C78.8101 22.4259 78.5472 22.7049 78.2843 22.8305C78.0353 22.97 77.6756 23.0398 77.2052 23.0398H76.887C75.6004 23.0398 74.9778 22.2446 74.9778 20.6681V12.3952C74.9778 11.2931 74.5628 10.749 73.7327 10.749C73.3176 10.749 72.9856 10.9304 72.7642 11.2792C72.5706 11.5861 72.4875 11.9628 72.4875 12.3952L72.7642 20.2217C72.8334 22.1748 73.0409 23.4862 73.3592 24.1977C73.8987 25.3556 74.9778 25.9276 76.5965 25.9276H76.721H77.4128H77.4819C78.3812 25.9276 79.1421 25.6067 79.7647 24.9789C80.4703 25.8299 81.3695 26.2485 82.4901 26.2485C83.3617 26.2485 84.0673 25.8997 84.593 25.1882C85.0773 24.5465 85.3124 23.7931 85.3124 22.8863C85.3401 21.8818 85.1049 21.0448 84.6899 20.3751ZM82.4348 23.8629C82.1581 23.8629 81.8814 23.7792 81.5494 23.6257C81.1758 23.4304 80.996 23.2072 80.996 22.97C80.996 22.6491 81.1482 22.3422 81.4664 22.0632C81.7846 21.7842 82.1028 21.6307 82.4071 21.6307C82.7253 21.6307 82.9744 21.7842 83.168 22.0771C83.3202 22.3283 83.4032 22.6212 83.4032 22.97C83.4032 23.5699 83.0989 23.8629 82.4348 23.8629Z" fill="white"/>
<path d="M17.896 33C24.7421 33 30.292 27.4036 30.292 20.5C30.292 13.5964 24.7421 8 17.896 8C11.0499 8 5.5 13.5964 5.5 20.5C5.5 27.4036 11.0499 33 17.896 33Z" fill="white"/>
<path d="M25.5041 19.0218C25.4072 16.6502 23.4704 14.7808 21.1046 14.7808C19.7903 14.7808 18.6005 15.3667 17.7981 16.2875C16.9957 15.3667 15.8059 14.7808 14.4916 14.7808C12.1673 14.7808 10.2581 16.5944 10.0921 18.8963C10.0921 18.9521 10.0782 19.0079 10.0782 19.0637V24.086C10.0782 24.6998 10.5763 25.2021 11.185 25.2021H11.2127C11.8214 25.2021 12.3195 24.6998 12.3195 24.086V19.2311C12.3195 18.0174 13.3018 17.0269 14.5054 17.0269C15.709 17.0269 16.6913 18.0174 16.6913 19.2311V23.3327C16.6913 23.9465 17.1894 24.4487 17.7981 24.4487H17.8258C18.4345 24.4487 18.9325 23.9465 18.9325 23.3327V19.2311C18.9325 18.0174 19.9148 17.0269 21.1184 17.0269C22.3221 17.0269 23.3044 18.0174 23.3044 19.2311V24.1C23.3044 24.7138 23.7886 25.2021 24.3973 25.2021H24.425C25.0337 25.2021 25.5179 24.7138 25.5179 24.1V19.1334C25.5041 19.0916 25.5041 19.0497 25.5041 19.0218Z" fill="black"/>
<path d="M21.3254 25.6208C21.2701 25.5371 21.1179 25.7046 21.1179 25.7046C20.5092 26.3742 19.2364 26.8067 17.9221 26.8067C16.6077 26.8067 15.3488 26.3742 14.7262 25.7046C14.7262 25.7046 14.5602 25.5371 14.5187 25.6208C14.4495 25.7185 14.5464 25.872 14.5464 25.872C15.3349 27.0159 16.5247 27.5182 17.9221 27.5182C19.3194 27.5182 20.5092 27.002 21.2978 25.872C21.2839 25.8859 21.3946 25.7325 21.3254 25.6208Z" fill="white"/>
</svg>
