<svg width="256" height="256" viewBox="0 0 256 256" fill="none" xmlns="http://www.w3.org/2000/svg">
<g clip-path="url(#clip0_3947_7012)">
<circle cx="128" cy="128" r="128" fill="#EDEEEF"/>
<mask id="mask0_3947_7012" style="mask-type:alpha" maskUnits="userSpaceOnUse" x="0" y="0" width="257" height="256">
<circle cx="128" cy="128" r="128" fill="#EDEEEF"/>
</mask>
<g mask="url(#mask0_3947_7012)">
<path d="M302.561 -188.258L225.837 -44.161M225.837 -44.161L-281.885 120.385M225.837 -44.161C225.837 -44.161 -43.2742 116.635 -169.017 180.481M225.837 -44.161L-42.9809 247.588M225.837 -44.161L45.4325 294.663M225.837 -44.161L137.608 343.741M225.837 -44.161L267.407 412.851M225.837 -44.161L412.254 489.975M225.837 -44.161L589.081 584.125M225.837 -44.161L-417.327 48.2694" stroke="#E4E4E4" stroke-width="2" stroke-linejoin="round"/>
</g>
<path d="M98 130C98 125.582 101.582 122 106 122H218C222.418 122 226 125.582 226 130V194C226 198.418 222.418 202 218 202H106C101.582 202 98 198.418 98 194V130Z" fill="#E1E2E5"/>
<path d="M94 126C94 121.582 97.5817 118 102 118H214C218.418 118 222 121.582 222 126V190C222 194.418 218.418 198 214 198H102C97.5817 198 94 194.418 94 190V126Z" fill="white"/>
<path d="M102 158C102 156.895 102.895 156 104 156H122C123.105 156 124 156.895 124 158V166C124 167.105 123.105 168 122 168H104C102.895 168 102 167.105 102 166V158Z" fill="#EDEEEF"/>
<path d="M130 158C130 156.895 130.895 156 132 156H152C153.105 156 154 156.895 154 158V166C154 167.105 153.105 168 152 168H132C130.895 168 130 167.105 130 166V158Z" fill="#EDEEEF"/>
<path d="M160 158C160 156.895 160.895 156 162 156H182C183.105 156 184 156.895 184 158V166C184 167.105 183.105 168 182 168H162C160.895 168 160 167.105 160 166V158Z" fill="#EDEEEF"/>
<path d="M190 158C190 156.895 190.895 156 192 156H212C213.105 156 214 156.895 214 158V166C214 167.105 213.105 168 212 168H192C190.895 168 190 167.105 190 166V158Z" fill="#EDEEEF"/>
<path d="M102 184C102 182.895 102.895 182 104 182H134C135.105 182 136 182.895 136 184V188C136 189.105 135.105 190 134 190H104C102.895 190 102 189.105 102 188V184Z" fill="#EDEEEF"/>
<path d="M198 136C198 131.582 201.582 128 206 128V128C210.418 128 214 131.582 214 136V136C214 140.418 210.418 144 206 144V144C201.582 144 198 140.418 198 136V136Z" fill="#EDEEEF"/>
<path d="M66 98C66 93.5817 69.5817 90 74 90H186C190.418 90 194 93.5817 194 98V162C194 166.418 190.418 170 186 170H74C69.5817 170 66 166.418 66 162V98Z" fill="#F0BA09"/>
<path d="M62 94C62 89.5817 65.5817 86 70 86H182C186.418 86 190 89.5817 190 94V158C190 162.418 186.418 166 182 166H70C65.5817 166 62 162.418 62 158V94Z" fill="#FFD60A"/>
<path d="M70 126C70 124.895 70.8954 124 72 124H90C91.1046 124 92 124.895 92 126V134C92 135.105 91.1046 136 90 136H72C70.8954 136 70 135.105 70 134V126Z" fill="#F0BA09"/>
<path d="M98 126C98 124.895 98.8954 124 100 124H120C121.105 124 122 124.895 122 126V134C122 135.105 121.105 136 120 136H100C98.8954 136 98 135.105 98 134V126Z" fill="#F0BA09"/>
<path d="M128 126C128 124.895 128.895 124 130 124H150C151.105 124 152 124.895 152 126V134C152 135.105 151.105 136 150 136H130C128.895 136 128 135.105 128 134V126Z" fill="#F0BA09"/>
<path d="M158 126C158 124.895 158.895 124 160 124H180C181.105 124 182 124.895 182 126V134C182 135.105 181.105 136 180 136H160C158.895 136 158 135.105 158 134V126Z" fill="#F0BA09"/>
<path d="M70 152C70 150.895 70.8954 150 72 150H102C103.105 150 104 150.895 104 152V156C104 157.105 103.105 158 102 158H72C70.8954 158 70 157.105 70 156V152Z" fill="#F0BA09"/>
<path d="M166 104C166 99.5817 169.582 96 174 96V96C178.418 96 182 99.5817 182 104V104C182 108.418 178.418 112 174 112V112C169.582 112 166 108.418 166 104V104Z" fill="#F0BA09"/>
<path d="M34 66C34 61.5817 37.5817 58 42 58H154C158.418 58 162 61.5817 162 66V130C162 134.418 158.418 138 154 138H42C37.5817 138 34 134.418 34 130V66Z" fill="#0A33FF"/>
<path d="M30 62C30 57.5817 33.5817 54 38 54H150C154.418 54 158 57.5817 158 62V126C158 130.418 154.418 134 150 134H38C33.5817 134 30 130.418 30 126V62Z" fill="#3B68FF"/>
<path d="M38 94C38 92.8954 38.8954 92 40 92H58C59.1046 92 60 92.8954 60 94V102C60 103.105 59.1046 104 58 104H40C38.8954 104 38 103.105 38 102V94Z" fill="#0A33FF"/>
<path d="M66 94C66 92.8954 66.8954 92 68 92H88C89.1046 92 90 92.8954 90 94V102C90 103.105 89.1046 104 88 104H68C66.8954 104 66 103.105 66 102V94Z" fill="#0A33FF"/>
<path d="M96 94C96 92.8954 96.8954 92 98 92H118C119.105 92 120 92.8954 120 94V102C120 103.105 119.105 104 118 104H98C96.8954 104 96 103.105 96 102V94Z" fill="#0A33FF"/>
<path d="M126 94C126 92.8954 126.895 92 128 92H148C149.105 92 150 92.8954 150 94V102C150 103.105 149.105 104 148 104H128C126.895 104 126 103.105 126 102V94Z" fill="#0A33FF"/>
<path d="M38 120C38 118.895 38.8954 118 40 118H70C71.1046 118 72 118.895 72 120V124C72 125.105 71.1046 126 70 126H40C38.8954 126 38 125.105 38 124V120Z" fill="#0A33FF"/>
<path d="M134 72C134 67.5817 137.582 64 142 64V64C146.418 64 150 67.5817 150 72V72C150 76.4183 146.418 80 142 80V80C137.582 80 134 76.4183 134 72V72Z" fill="#0A33FF"/>
</g>
<defs>
<clipPath id="clip0_3947_7012">
<rect width="256" height="256" fill="white"/>
</clipPath>
</defs>
</svg>
