<svg width="131" height="40" viewBox="0 0 131 40" fill="none" xmlns="http://www.w3.org/2000/svg">
<rect x="0.5" width="130" height="40" rx="6" fill="black"/>
<path fill-rule="evenodd" clip-rule="evenodd" d="M9.93502 7.54685C9.64402 7.85485 9.47302 8.33185 9.47302 8.95085V31.0489C9.47302 31.6679 9.64402 32.1449 9.93502 32.4529L10.009 32.5249L22.388 20.1459V19.8539L10.009 7.47485L9.93502 7.54685Z" fill="#00D7FE"/>
<mask id="mask0_3876_7894" style="mask-type:alpha" maskUnits="userSpaceOnUse" x="22" y="15" width="11" height="10">
<path d="M26.513 24.2741L22.388 20.1461V19.8541L26.515 15.7271L31.497 18.5571C32.893 19.3511 32.893 20.6491 31.497 21.4421L26.608 24.2201L26.513 24.2741Z" fill="white"/>
</mask>
<g mask="url(#mask0_3876_7894)">
<path fill-rule="evenodd" clip-rule="evenodd" d="M26.513 24.2741L22.388 20.1461V19.8541L26.515 15.7271L31.497 18.5571C32.893 19.3511 32.893 20.6491 31.497 21.4421L26.608 24.2201L26.513 24.2741Z" fill="url(#paint0_linear_3876_7894)"/>
</g>
<mask id="mask1_3876_7894" style="mask-type:alpha" maskUnits="userSpaceOnUse" x="9" y="20" width="18" height="13">
<path d="M26.608 24.22L22.388 20L9.935 32.453C10.396 32.94 11.156 33 12.012 32.514L26.608 24.22Z" fill="white"/>
</mask>
<g mask="url(#mask1_3876_7894)">
<path fill-rule="evenodd" clip-rule="evenodd" d="M26.608 24.22L22.388 20L9.935 32.453C10.396 32.94 11.156 33 12.012 32.514L26.608 24.22Z" fill="url(#paint1_linear_3876_7894)"/>
</g>
<mask id="mask2_3876_7894" style="mask-type:alpha" maskUnits="userSpaceOnUse" x="9" y="7" width="18" height="13">
<path d="M26.608 15.7799L12.012 7.48593C11.156 6.99993 10.396 7.05993 9.935 7.54693L22.388 19.9999L26.608 15.7799Z" fill="white"/>
</mask>
<g mask="url(#mask2_3876_7894)">
<path fill-rule="evenodd" clip-rule="evenodd" d="M26.608 15.7799L12.012 7.48593C11.156 6.99993 10.396 7.05993 9.935 7.54693L22.388 19.9999L26.608 15.7799Z" fill="url(#paint2_linear_3876_7894)"/>
</g>
<path fill-rule="evenodd" clip-rule="evenodd" d="M104.394 30.953H106.26V18.452H104.394V30.953ZM121.201 22.955L119.062 28.375H118.998L116.778 22.955H114.768L118.097 30.53L116.199 34.744H118.146L123.276 22.955H121.201ZM110.619 29.533C110.007 29.533 109.155 29.228 109.155 28.472C109.155 27.507 110.217 27.137 111.133 27.137C111.954 27.137 112.339 27.314 112.838 27.555C112.693 28.713 111.696 29.533 110.619 29.533ZM110.844 22.682C109.493 22.682 108.094 23.277 107.515 24.596L109.171 25.287C109.525 24.596 110.184 24.37 110.876 24.37C111.841 24.37 112.822 24.949 112.838 25.979V26.107C112.5 25.914 111.777 25.625 110.892 25.625C109.107 25.625 107.289 26.606 107.289 28.439C107.289 30.112 108.753 31.19 110.393 31.19C111.648 31.19 112.339 30.627 112.774 29.967H112.838V30.932H114.639V26.14C114.639 23.92 112.983 22.682 110.844 22.682ZM99.312 24.477H96.658V20.192H99.312C100.707 20.192 101.499 21.347 101.499 22.334C101.499 23.303 100.707 24.477 99.312 24.477ZM99.264 18.452H94.793V30.953H96.658V26.217H99.264C101.332 26.217 103.365 24.719 103.365 22.334C103.365 19.949 101.332 18.452 99.264 18.452ZM74.883 29.535C73.594 29.535 72.515 28.456 72.515 26.974C72.515 25.476 73.594 24.38 74.883 24.38C76.156 24.38 77.154 25.476 77.154 26.974C77.154 28.456 76.156 29.535 74.883 29.535ZM77.025 23.655H76.961C76.542 23.156 75.737 22.705 74.722 22.705C72.595 22.705 70.646 24.573 70.646 26.974C70.646 29.358 72.595 31.211 74.722 31.211C75.737 31.211 76.542 30.76 76.961 30.244H77.025V30.856C77.025 32.484 76.156 33.354 74.754 33.354C73.61 33.354 72.901 32.532 72.611 31.839L70.984 32.516C71.451 33.644 72.692 35.029 74.754 35.029C76.945 35.029 78.798 33.74 78.798 30.599V22.962H77.025V23.655ZM80.087 30.953H81.956V18.451H80.087V30.953ZM84.71 26.829C84.662 25.186 85.983 24.348 86.933 24.348C87.675 24.348 88.303 24.718 88.512 25.25L84.71 26.829ZM90.51 25.411C90.156 24.461 89.076 22.705 86.869 22.705C84.678 22.705 82.858 24.428 82.858 26.958C82.858 29.342 84.662 31.211 87.078 31.211C89.028 31.211 90.156 30.019 90.623 29.326L89.173 28.359C88.69 29.068 88.029 29.535 87.078 29.535C86.128 29.535 85.451 29.1 85.016 28.247L90.703 25.895L90.51 25.411ZM45.202 24.01V25.814H49.519C49.39 26.829 49.052 27.57 48.537 28.086C47.908 28.714 46.925 29.406 45.202 29.406C42.544 29.406 40.465 27.264 40.465 24.606C40.465 21.947 42.544 19.805 45.202 19.805C46.636 19.805 47.683 20.369 48.456 21.094L49.729 19.821C48.649 18.79 47.216 18 45.202 18C41.561 18 38.5 20.965 38.5 24.606C38.5 28.247 41.561 31.211 45.202 31.211C47.167 31.211 48.649 30.567 49.809 29.358C51.001 28.166 51.372 26.491 51.372 25.137C51.372 24.718 51.34 24.332 51.275 24.01H45.202ZM56.281 29.535C54.992 29.535 53.88 28.472 53.88 26.958C53.88 25.427 54.992 24.38 56.281 24.38C57.569 24.38 58.681 25.427 58.681 26.958C58.681 28.472 57.569 29.535 56.281 29.535ZM56.281 22.705C53.928 22.705 52.011 24.493 52.011 26.958C52.011 29.406 53.928 31.211 56.281 31.211C58.633 31.211 60.55 29.406 60.55 26.958C60.55 24.493 58.633 22.705 56.281 22.705ZM65.594 29.535C64.305 29.535 63.193 28.472 63.193 26.958C63.193 25.427 64.305 24.38 65.594 24.38C66.883 24.38 67.994 25.427 67.994 26.958C67.994 28.472 66.883 29.535 65.594 29.535ZM65.594 22.705C63.242 22.705 61.325 24.493 61.325 26.958C61.325 29.406 63.242 31.211 65.594 31.211C67.946 31.211 69.863 29.406 69.863 26.958C69.863 24.493 67.946 22.705 65.594 22.705Z" fill="#FFFFFE"/>
<path d="M43.9712 10.814V13.1562C43.8921 13.2734 43.7661 13.4053 43.5933 13.5518C43.4204 13.6953 43.1816 13.8213 42.877 13.9297C42.5752 14.0352 42.1855 14.0879 41.708 14.0879C41.3184 14.0879 40.9595 14.0205 40.6313 13.8857C40.3062 13.748 40.0234 13.5488 39.7832 13.2881C39.5459 13.0244 39.3613 12.7051 39.2295 12.3301C39.1006 11.9521 39.0361 11.5244 39.0361 11.0469V10.5503C39.0361 10.0728 39.0918 9.64648 39.2031 9.27148C39.3174 8.89648 39.4844 8.57861 39.7041 8.31787C39.9238 8.0542 40.1934 7.85498 40.5127 7.72021C40.832 7.58252 41.1982 7.51367 41.6113 7.51367C42.1006 7.51367 42.5093 7.59863 42.8374 7.76855C43.1685 7.93555 43.4263 8.16699 43.6108 8.46289C43.7983 8.75879 43.9185 9.0957 43.9712 9.47363H43.123C43.085 9.24219 43.0088 9.03125 42.8945 8.84082C42.7832 8.65039 42.6235 8.49805 42.4155 8.38379C42.2075 8.2666 41.9395 8.20801 41.6113 8.20801C41.3154 8.20801 41.0591 8.26221 40.8423 8.37061C40.6255 8.479 40.4468 8.63428 40.3062 8.83643C40.1655 9.03857 40.0601 9.2832 39.9897 9.57031C39.9224 9.85742 39.8887 10.1812 39.8887 10.5415V11.0469C39.8887 11.416 39.9312 11.7456 40.0161 12.0356C40.104 12.3257 40.2285 12.5732 40.3896 12.7783C40.5508 12.9805 40.7427 13.1343 40.9653 13.2397C41.1909 13.3452 41.4399 13.3979 41.7124 13.3979C42.0142 13.3979 42.2588 13.373 42.4463 13.3232C42.6338 13.2705 42.7803 13.209 42.8857 13.1387C42.9912 13.0654 43.0718 12.9966 43.1274 12.9321V11.4995H41.6465V10.814H43.9712ZM49.1724 13.3101V14H45.7842V13.3101H49.1724ZM45.9556 7.60156V14H45.1074V7.60156H45.9556ZM48.7241 10.3525V11.0425H45.7842V10.3525H48.7241ZM49.1284 7.60156V8.2959H45.7842V7.60156H49.1284ZM52.4048 7.60156V14H51.5699V7.60156H52.4048ZM54.4615 7.60156V8.2959H49.5176V7.60156H54.4615ZM57.837 7.60156V14H56.9888V7.60156H57.837ZM61.3419 7.60156V14H60.5069V7.60156H61.3419ZM63.3985 7.60156V8.2959H58.4547V7.60156H63.3985ZM70.7907 10.5986V11.0029C70.7907 11.4834 70.7306 11.9141 70.6105 12.2949C70.4904 12.6758 70.3175 12.9995 70.0919 13.2661C69.8663 13.5327 69.5954 13.7363 69.2789 13.877C68.9655 14.0176 68.6139 14.0879 68.2243 14.0879C67.8463 14.0879 67.4992 14.0176 67.1828 13.877C66.8693 13.7363 66.5968 13.5327 66.3654 13.2661C66.1369 12.9995 65.9596 12.6758 65.8336 12.2949C65.7077 11.9141 65.6447 11.4834 65.6447 11.0029V10.5986C65.6447 10.1182 65.7062 9.68896 65.8292 9.31104C65.9552 8.93018 66.1325 8.60645 66.361 8.33984C66.5895 8.07031 66.8605 7.86523 67.174 7.72461C67.4904 7.58398 67.8375 7.51367 68.2155 7.51367C68.6051 7.51367 68.9567 7.58398 69.2702 7.72461C69.5866 7.86523 69.8576 8.07031 70.0831 8.33984C70.3117 8.60645 70.486 8.93018 70.6061 9.31104C70.7291 9.68896 70.7907 10.1182 70.7907 10.5986ZM69.9513 11.0029V10.5898C69.9513 10.209 69.9118 9.87207 69.8327 9.5791C69.7565 9.28613 69.6437 9.04004 69.4943 8.84082C69.3449 8.6416 69.1618 8.49072 68.945 8.38818C68.7311 8.28564 68.4879 8.23438 68.2155 8.23438C67.9518 8.23438 67.713 8.28564 67.4992 8.38818C67.2882 8.49072 67.1066 8.6416 66.9542 8.84082C66.8048 9.04004 66.6891 9.28613 66.6071 9.5791C66.525 9.87207 66.484 10.209 66.484 10.5898V11.0029C66.484 11.3867 66.525 11.7266 66.6071 12.0225C66.6891 12.3154 66.8063 12.563 66.9586 12.7651C67.1139 12.9644 67.297 13.1152 67.5079 13.2178C67.7218 13.3203 67.9606 13.3716 68.2243 13.3716C68.4996 13.3716 68.7443 13.3203 68.9581 13.2178C69.172 13.1152 69.3522 12.9644 69.4987 12.7651C69.6481 12.563 69.7609 12.3154 69.8371 12.0225C69.9132 11.7266 69.9513 11.3867 69.9513 11.0029ZM76.7126 7.60156V14H75.86L72.6388 9.06494V14H71.7907V7.60156H72.6388L75.8732 12.5498V7.60156H76.7126Z" fill="white"/>
<defs>
<linearGradient id="paint0_linear_3876_7894" x1="30.5888" y1="20.0004" x2="22.388" y2="20.0004" gradientUnits="userSpaceOnUse">
<stop stop-color="#FFBC00"/>
<stop offset="1" stop-color="#FFDA03"/>
</linearGradient>
<linearGradient id="paint1_linear_3876_7894" x1="24.3146" y1="23.9708" x2="13.6111" y2="32.7933" gradientUnits="userSpaceOnUse">
<stop stop-color="#E22652"/>
<stop offset="1" stop-color="#FF3A44"/>
</linearGradient>
<linearGradient id="paint2_linear_3876_7894" x1="11.8207" y1="9.04609" x2="18.9569" y2="15.321" gradientUnits="userSpaceOnUse">
<stop stop-color="#0ED574"/>
<stop offset="1" stop-color="#07F076"/>
</linearGradient>
</defs>
</svg>
